<?xml version="1.0" encoding="UTF-8"?>
<!DOCTYPE svg PUBLIC "-//W3C//DTD SVG 1.1//EN" "http://www.w3.org/Graphics/SVG/1.1/DTD/svg11.dtd">
<svg xmlns="http://www.w3.org/2000/svg" version="1.1" width="2000px" height="2000px" style="shape-rendering:geometricPrecision; text-rendering:geometricPrecision; image-rendering:optimizeQuality; fill-rule:evenodd; clip-rule:evenodd" xmlns:xlink="http://www.w3.org/1999/xlink">
<g><path style="opacity:1" fill="#f9faf9" d="M -0.5,-0.5 C 0.833333,-0.5 2.16667,-0.5 3.5,-0.5C 3.76202,0.977822 3.42869,2.31116 2.5,3.5C 1.73485,2.38809 0.734849,1.72142 -0.5,1.5C -0.5,0.833333 -0.5,0.166667 -0.5,-0.5 Z"/></g>
<g><path style="opacity:1" fill="#f6f6f5" d="M 1671.5,845.5 C 1670.5,845.5 1669.5,845.5 1668.5,845.5C 1668.51,847.547 1668.84,849.547 1669.5,851.5C 1668.83,854.028 1668,854.028 1667,851.5C 1666.51,852.793 1666.34,854.127 1666.5,855.5C 1681.9,855.776 1697.23,855.443 1712.5,854.5C 1718.89,854.939 1725.22,855.772 1731.5,857C 1732.63,860.744 1732.79,864.577 1732,868.5C 1727.13,881.982 1722.63,895.482 1718.5,909C 1719.5,909.5 1720.5,910 1721.5,910.5C 1740.41,909.65 1759.41,909.316 1778.5,909.5C 1782.9,910.061 1784.57,912.561 1783.5,917C 1783.45,919.295 1782.79,921.129 1781.5,922.5C 1781.5,920.833 1781.5,919.167 1781.5,917.5C 1781.5,916.167 1781.5,914.833 1781.5,913.5C 1758.83,913.5 1736.17,913.5 1713.5,913.5C 1719.09,897.232 1724.59,880.899 1730,864.5C 1730.78,862.613 1730.61,860.946 1729.5,859.5C 1707,858.833 1684.33,858.167 1661.5,857.5C 1667.78,839.999 1673.45,822.333 1678.5,804.5C 1528.83,804.333 1379.17,804.5 1229.5,805C 1179.7,954.741 1129.7,1104.41 1079.5,1254C 1102.51,1254.17 1125.51,1254.67 1148.5,1255.5C 1147.75,1256.74 1147.42,1258.07 1147.5,1259.5C 1140.88,1275.68 1135.55,1292.01 1131.5,1308.5C 1154.33,1309.5 1177.33,1309.83 1200.5,1309.5C 1196.21,1323.38 1191.54,1337.05 1186.5,1350.5C 1187.72,1341.3 1190.05,1332.3 1193.5,1323.5C 1192.29,1319.88 1192.95,1316.55 1195.5,1313.5C 1197.17,1316.08 1197.67,1315.75 1197,1312.5C 1177.47,1311.31 1157.64,1311.31 1137.5,1312.5C 1135.22,1311.79 1132.89,1311.29 1130.5,1311C 1129.69,1309.69 1128.69,1308.52 1127.5,1307.5C 1129.53,1305.75 1129.86,1303.75 1128.5,1301.5C 1131.32,1296.51 1133.66,1291.17 1135.5,1285.5C 1134.13,1283.38 1134.8,1282.38 1137.5,1282.5C 1138.36,1277.87 1139.69,1273.37 1141.5,1269C 1141.26,1268.13 1140.93,1267.29 1140.5,1266.5C 1141.27,1265.29 1142.11,1265.29 1143,1266.5C 1143.56,1264.13 1143.4,1261.8 1142.5,1259.5C 1142.83,1258.83 1143.17,1258.17 1143.5,1257.5C 1145,1261.37 1145.67,1261.04 1145.5,1256.5C 1123.06,1256.56 1100.73,1256.56 1078.5,1256.5C 1078.58,1255.07 1078.25,1253.74 1077.5,1252.5C 1079.71,1245.45 1082.04,1238.45 1084.5,1231.5C 1083.42,1229.13 1083.42,1226.79 1084.5,1224.5C 1085.25,1225.38 1085.75,1226.38 1086,1227.5C 1086.34,1224.46 1087.17,1221.63 1088.5,1219C 1088.36,1217.77 1088.02,1216.61 1087.5,1215.5C 1088.27,1214.29 1089.11,1214.29 1090,1215.5C 1091.38,1209.58 1093.38,1203.91 1096,1198.5C 1096.65,1196.76 1096.48,1195.1 1095.5,1193.5C 1096.27,1192.29 1097.11,1192.29 1098,1193.5C 1098.54,1190.91 1099.37,1188.41 1100.5,1186C 1098.58,1181.95 1099.24,1178.45 1102.5,1175.5C 1103.09,1175.71 1103.59,1176.04 1104,1176.5C 1104.5,1174.19 1104.66,1171.86 1104.5,1169.5C 1106.09,1167.17 1107.09,1164.5 1107.5,1161.5C 1106.67,1158.22 1106.34,1154.88 1106.5,1151.5C 1108.17,1151.5 1109.83,1151.5 1111.5,1151.5C 1111.77,1149.9 1111.43,1148.57 1110.5,1147.5C 1110.21,1145.71 1110.55,1144.05 1111.5,1142.5C 1112.25,1143.38 1112.75,1144.38 1113,1145.5C 1113.45,1142.87 1114.28,1140.37 1115.5,1138C 1114.63,1134.89 1114.3,1131.73 1114.5,1128.5C 1118.52,1129.16 1119.85,1127.83 1118.5,1124.5C 1117.8,1120.17 1119.47,1117.51 1123.5,1116.5C 1122.84,1112.53 1122.5,1108.53 1122.5,1104.5C 1124.2,1104.66 1125.87,1104.49 1127.5,1104C 1126.22,1101.21 1126.22,1098.37 1127.5,1095.5C 1128.3,1097.08 1128.8,1098.74 1129,1100.5C 1129.43,1097.55 1130.26,1094.72 1131.5,1092C 1130.43,1089.13 1130.43,1086.3 1131.5,1083.5C 1132.52,1082.15 1133.86,1081.48 1135.5,1081.5C 1135.49,1079.45 1135.16,1077.45 1134.5,1075.5C 1135.17,1072.97 1136,1072.97 1137,1075.5C 1137.33,1072.68 1138.16,1070.01 1139.5,1067.5C 1137.88,1063.91 1138.21,1060.58 1140.5,1057.5C 1138.08,1055.29 1138.74,1054.29 1142.5,1054.5C 1142.35,1055.55 1142.52,1056.55 1143,1057.5C 1143.56,1055.13 1143.4,1052.8 1142.5,1050.5C 1142.83,1049.83 1143.17,1049.17 1143.5,1048.5C 1144.25,1049.38 1144.75,1050.38 1145,1051.5C 1145.1,1048.55 1145.93,1045.88 1147.5,1043.5C 1146.46,1042.38 1145.79,1041.04 1145.5,1039.5C 1146.46,1036.89 1147.79,1034.56 1149.5,1032.5C 1150.67,1031.49 1151.34,1030.15 1151.5,1028.5C 1152.18,1025.99 1153.18,1023.49 1154.5,1021C 1152.99,1016.21 1153.65,1011.71 1156.5,1007.5C 1157.25,1008.38 1157.75,1009.38 1158,1010.5C 1158.35,1008.75 1158.85,1007.09 1159.5,1005.5C 1160.13,1002.62 1161.13,999.786 1162.5,997C 1161.33,994.479 1161.33,991.979 1162.5,989.5C 1163.52,988.147 1164.86,987.48 1166.5,987.5C 1166.71,985.08 1166.37,982.747 1165.5,980.5C 1166.63,979.396 1167.46,979.729 1168,981.5C 1168.24,978.792 1169.07,976.292 1170.5,974C 1168.99,969.209 1169.65,964.709 1172.5,960.5C 1173.19,961.025 1173.69,961.692 1174,962.5C 1174.65,960.765 1174.48,959.098 1173.5,957.5C 1174.27,956.289 1175.11,956.289 1176,957.5C 1176.24,954.792 1177.07,952.292 1178.5,950C 1177.33,947.479 1177.33,944.979 1178.5,942.5C 1179.52,941.147 1180.86,940.48 1182.5,940.5C 1182.38,938.801 1182.05,937.135 1181.5,935.5C 1181.82,933.431 1182.66,933.098 1184,934.5C 1184.24,931.792 1185.07,929.292 1186.5,927C 1185.33,924.479 1185.33,921.979 1186.5,919.5C 1187.19,920.025 1187.69,920.692 1188,921.5C 1188.53,918.071 1189.37,914.738 1190.5,911.5C 1191.49,908.943 1192.49,906.276 1193.5,903.5C 1192.38,900.804 1192.38,898.137 1193.5,895.5C 1194.28,896.729 1194.78,898.062 1195,899.5C 1195.69,896.615 1196.53,893.782 1197.5,891C 1197.36,889.774 1197.02,888.607 1196.5,887.5C 1197.27,886.289 1198.11,886.289 1199,887.5C 1199.21,884.748 1200.05,882.248 1201.5,880C 1200.39,878.118 1200.39,876.284 1201.5,874.5C 1202.09,874.709 1202.59,875.043 1203,875.5C 1205.2,869.233 1207.37,862.9 1209.5,856.5C 1207.68,852.133 1208.85,848.8 1213,846.5C 1213.69,844.432 1213.52,842.432 1212.5,840.5C 1213.27,839.289 1214.11,839.289 1215,840.5C 1217.95,830.205 1221.45,820.038 1225.5,810C 1224.48,806.688 1225.48,804.022 1228.5,802C 1231.78,801.176 1235.12,800.676 1238.5,800.5C 1343.55,800.687 1449.21,800.687 1555.5,800.5C 1597.98,801.462 1639.98,802.462 1681.5,803.5C 1681.1,806.748 1680.43,809.915 1679.5,813C 1680.31,813.308 1680.97,813.808 1681.5,814.5C 1680.73,815.711 1679.89,815.711 1679,814.5C 1676.17,823.381 1673.34,832.381 1670.5,841.5C 1670.85,842.849 1671.18,844.183 1671.5,845.5 Z"/></g>
<g><path style="opacity:1" fill="#000000" d="M 1729.5,859.5 C 1580.17,859.333 1430.83,859.5 1281.5,860C 1236.67,993 1192.33,1126.17 1148.5,1259.5C 1148.17,1259.5 1147.83,1259.5 1147.5,1259.5C 1147.42,1258.07 1147.75,1256.74 1148.5,1255.5C 1125.51,1254.67 1102.51,1254.17 1079.5,1254C 1129.7,1104.41 1179.7,954.741 1229.5,805C 1379.17,804.5 1528.83,804.333 1678.5,804.5C 1673.45,822.333 1667.78,839.999 1661.5,857.5C 1684.33,858.167 1707,858.833 1729.5,859.5 Z"/></g>
<g><path style="opacity:1" fill="#f9faf9" d="M 1671.5,845.5 C 1673.34,845.639 1673.67,846.306 1672.5,847.5C 1671.7,847.043 1671.37,846.376 1671.5,845.5 Z"/></g>
<g><path style="opacity:1" fill="#f9d301" d="M 1729.5,859.5 C 1730.61,860.946 1730.78,862.613 1730,864.5C 1724.59,880.899 1719.09,897.232 1713.5,913.5C 1669.02,1045.26 1625.36,1177.26 1582.5,1309.5C 1455.17,1309.5 1327.83,1309.5 1200.5,1309.5C 1177.33,1309.83 1154.33,1309.5 1131.5,1308.5C 1137.35,1292.28 1143.02,1275.95 1148.5,1259.5C 1192.33,1126.17 1236.67,993 1281.5,860C 1430.83,859.5 1580.17,859.333 1729.5,859.5 Z"/></g>
<g><path style="opacity:1" fill="#f9faf9" d="M 1194.5,890.5 C 1196.34,890.639 1196.67,891.306 1195.5,892.5C 1194.7,892.043 1194.37,891.376 1194.5,890.5 Z"/></g>
<g><path style="opacity:1" fill="#f9faf9" d="M 1190.5,911.5 C 1188.66,911.361 1188.33,910.694 1189.5,909.5C 1190.3,909.957 1190.63,910.624 1190.5,911.5 Z"/></g>
<g><path style="opacity:1" fill="#010100" d="M 1713.5,913.5 C 1736.17,913.5 1758.83,913.5 1781.5,913.5C 1781.5,914.833 1781.5,916.167 1781.5,917.5C 1735.13,1054.94 1689.13,1192.61 1643.5,1330.5C 1639.84,1341.14 1636.18,1351.81 1632.5,1362.5C 1482.5,1363.5 1332.5,1363.83 1182.5,1363.5C 1182.5,1363.17 1182.5,1362.83 1182.5,1362.5C 1183.74,1360.79 1184.41,1358.79 1184.5,1356.5C 1185.74,1354.79 1186.41,1352.79 1186.5,1350.5C 1191.54,1337.05 1196.21,1323.38 1200.5,1309.5C 1327.83,1309.5 1455.17,1309.5 1582.5,1309.5C 1625.36,1177.26 1669.02,1045.26 1713.5,913.5 Z"/></g>
<g><path style="opacity:1" fill="#f5f5f3" d="M 474.5,997.5 C 477.593,996.332 479.926,994.332 481.5,991.5C 482.583,991.539 483.583,991.873 484.5,992.5C 485.912,991.194 487.579,990.36 489.5,990C 486.972,989.002 486.972,988.169 489.5,987.5C 490.554,987.68 491.554,988.013 492.5,988.5C 498.852,985.411 505.519,983.244 512.5,982C 511.289,981.107 511.289,980.274 512.5,979.5C 513.833,982.167 515.167,982.167 516.5,979.5C 517.167,980.167 517.833,980.833 518.5,981.5C 519.468,980.511 520.635,979.844 522,979.5C 530.515,980.55 539.015,980.55 547.5,979.5C 549.833,979.833 552.167,980.167 554.5,980.5C 553.271,981.281 551.938,981.781 550.5,982C 552.473,982.495 554.473,982.662 556.5,982.5C 556.281,981.325 556.614,980.325 557.5,979.5C 558.452,981.045 558.785,982.712 558.5,984.5C 560.591,984.682 562.591,984.348 564.5,983.5C 565.711,984.274 565.711,985.107 564.5,986C 566.488,986.18 568.488,986.014 570.5,985.5C 570.596,989.311 571.262,989.311 572.5,985.5C 576.487,988.328 580.82,990.328 585.5,991.5C 585.286,995.257 586.286,995.924 588.5,993.5C 589.842,995.005 591.508,995.672 593.5,995.5C 593.5,996.833 593.5,998.167 593.5,999.5C 595.718,999.614 597.718,1000.28 599.5,1001.5C 600.261,1002.39 601.261,1003.06 602.5,1003.5C 603.172,1004.95 603.839,1006.28 604.5,1007.5C 604.5,1008.17 604.5,1008.83 604.5,1009.5C 605.167,1009.5 605.833,1009.5 606.5,1009.5C 608.025,1011.04 610.025,1012.04 612.5,1012.5C 611.833,1013.17 611.167,1013.83 610.5,1014.5C 613.446,1018.87 615.446,1023.54 616.5,1028.5C 616.423,1025.99 617.423,1023.99 619.5,1022.5C 620.281,1023.73 620.781,1025.06 621,1026.5C 621.645,1025.35 622.478,1024.35 623.5,1023.5C 622.128,1021.38 622.795,1020.38 625.5,1020.5C 624.595,1017.79 624.262,1015.12 624.5,1012.5C 625.868,1011.41 627.035,1011.74 628,1013.5C 628.5,1011.67 629.667,1010.5 631.5,1010C 631.043,1009.59 630.709,1009.09 630.5,1008.5C 632.159,1007.18 633.326,1005.52 634,1003.5C 635.979,1003.12 637.812,1001.79 639.5,999.5C 640.086,999.709 640.586,1000.04 641,1000.5C 642.009,998.975 642.509,997.308 642.5,995.5C 649.953,992.274 657.286,988.774 664.5,985C 671.287,983.348 677.954,981.514 684.5,979.5C 692.63,980.655 700.963,980.655 709.5,979.5C 711.167,979.833 712.833,980.167 714.5,980.5C 713.624,981.251 712.624,981.751 711.5,982C 713.134,982.494 714.801,982.66 716.5,982.5C 716.281,981.325 716.614,980.325 717.5,979.5C 718.429,980.689 718.762,982.022 718.5,983.5C 720.939,984.053 723.273,984.053 725.5,983.5C 726.167,984.5 726.833,985.5 727.5,986.5C 728.446,986.013 729.446,985.68 730.5,985.5C 736.344,987.923 742.011,990.59 747.5,993.5C 748.007,994.859 749.007,995.859 750.5,996.5C 749.145,997.675 749.312,998.675 751,999.5C 751.219,998.062 751.719,996.729 752.5,995.5C 753.271,997.862 754.105,1000.2 755,1002.5C 756.494,998.696 757.328,999.029 757.5,1003.5C 758.833,1003.5 760.167,1003.5 761.5,1003.5C 761.5,1004.83 762.167,1005.5 763.5,1005.5C 764.72,1008.13 765.887,1010.8 767,1013.5C 767.417,1012.24 768.25,1011.58 769.5,1011.5C 769.717,1014.89 771.051,1017.72 773.5,1020C 773.043,1020.41 772.709,1020.91 772.5,1021.5C 774.275,1024.74 776.275,1027.74 778.5,1030.5C 778.66,1032.15 779.326,1033.49 780.5,1034.5C 781.82,1000.85 781.82,967.186 780.5,933.5C 786.709,931.99 793.042,931.323 799.5,931.5C 810.994,932.259 822.661,932.259 834.5,931.5C 835.425,932.357 836.092,933.357 836.5,934.5C 819.167,934.5 801.833,934.5 784.5,934.5C 784.5,999.5 784.5,1064.5 784.5,1129.5C 789.167,1129.5 793.833,1129.5 798.5,1129.5C 798.5,1132.5 798.5,1135.5 798.5,1138.5C 815.833,1138.5 833.167,1138.5 850.5,1138.5C 850.333,1124.83 850.5,1111.16 851,1097.5C 852.039,1096.29 853.206,1095.29 854.5,1094.5C 861.241,1105.64 867.741,1116.98 874,1128.5C 876.719,1129.44 879.552,1129.78 882.5,1129.5C 884.142,1132.1 885.808,1134.77 887.5,1137.5C 907.492,1138.67 927.492,1138.83 947.5,1138C 930.577,1111.49 913.91,1084.82 897.5,1058C 913.486,1037.34 929.486,1016.68 945.5,996C 926.17,995.5 906.836,995.333 887.5,995.5C 900.34,994.833 913.34,994.167 926.5,993.5C 928.38,990.909 930.38,988.409 932.5,986C 912.836,985.5 893.169,985.333 873.5,985.5C 891.993,984.503 910.659,984.17 929.5,984.5C 931.379,983.659 933.379,983.325 935.5,983.5C 935.788,986.805 934.788,989.638 932.5,992C 936.415,992.155 940.249,991.655 944,990.5C 947.813,990.938 950.98,992.604 953.5,995.5C 954.934,994.412 955.934,993.078 956.5,991.5C 965.516,987.774 975.183,984.608 985.5,982C 986.646,981.355 987.646,980.522 988.5,979.5C 989.216,980.311 990.05,980.978 991,981.5C 993.524,980.896 996.024,980.229 998.5,979.5C 1007.52,980.522 1016.52,980.522 1025.5,979.5C 1031.29,979.821 1031.62,980.654 1026.5,982C 1028.47,982.495 1030.47,982.662 1032.5,982.5C 1032.28,981.325 1032.61,980.325 1033.5,979.5C 1035.32,980.728 1036.32,982.394 1036.5,984.5C 1038.26,984.643 1039.93,984.309 1041.5,983.5C 1042.33,984.5 1043.17,985.5 1044,986.5C 1044.25,985.376 1044.75,984.376 1045.5,983.5C 1048.34,985.42 1051.34,987.087 1054.5,988.5C 1053.39,989.965 1053.89,990.965 1056,991.5C 1056.22,990.062 1056.72,988.729 1057.5,987.5C 1058.12,989.966 1058.96,992.299 1060,994.5C 1060.25,993.376 1060.75,992.376 1061.5,991.5C 1062.3,993.078 1062.8,994.744 1063,996.5C 1063.25,995.376 1063.75,994.376 1064.5,993.5C 1066.2,995.532 1068.2,997.198 1070.5,998.5C 1071.71,999.72 1071.71,1000.89 1070.5,1002C 1072.33,1002.27 1073.83,1003.11 1075,1004.5C 1075.41,1004.04 1075.91,1003.71 1076.5,1003.5C 1078.83,1005.83 1081.17,1008.17 1083.5,1010.5C 1083.29,1011.09 1082.96,1011.59 1082.5,1012C 1085.77,1014.48 1088.11,1017.14 1089.5,1020C 1089.04,1020.41 1088.71,1020.91 1088.5,1021.5C 1092.85,1026.86 1094.19,1032.86 1092.5,1039.5C 1081.99,1040.87 1071.33,1041.71 1060.5,1042C 1057.83,1042.67 1055.17,1043.33 1052.5,1044C 1054.95,1044.88 1057.28,1046.05 1059.5,1047.5C 1062.54,1045.96 1063.54,1046.63 1062.5,1049.5C 1064.45,1049.23 1065.95,1049.89 1067,1051.5C 1069.3,1049.05 1070.63,1049.72 1071,1053.5C 1073.27,1052.76 1075.27,1052.76 1077,1053.5C 1080.34,1056.67 1083.84,1059.67 1087.5,1062.5C 1086.36,1063.43 1086.36,1064.26 1087.5,1065C 1089.44,1065.3 1091.11,1066.14 1092.5,1067.5C 1093.33,1070.5 1094.17,1073.5 1095,1076.5C 1097.81,1077.47 1098.31,1079.14 1096.5,1081.5C 1096.75,1084.18 1097.75,1086.51 1099.5,1088.5C 1099.61,1092.76 1099.27,1097.1 1098.5,1101.5C 1097.16,1098.68 1096.49,1098.85 1096.5,1102C 1096.53,1103.07 1096.86,1103.9 1097.5,1104.5C 1097.29,1106.55 1096.46,1106.88 1095,1105.5C 1094.31,1107.57 1094.48,1109.57 1095.5,1111.5C 1094.73,1112.71 1093.89,1112.71 1093,1111.5C 1091.42,1113.9 1090.59,1116.23 1090.5,1118.5C 1089.91,1118.29 1089.41,1117.96 1089,1117.5C 1083.05,1125.94 1075.22,1131.94 1065.5,1135.5C 1065.65,1137.94 1064.81,1138.61 1063,1137.5C 1056.74,1140.03 1050.24,1141.86 1043.5,1143C 1032.74,1144.23 1022.08,1144.73 1011.5,1144.5C 1001.25,1143.55 991.249,1141.55 981.5,1138.5C 981.5,1137.5 981.5,1136.5 981.5,1135.5C 977.838,1137.07 975.172,1135.9 973.5,1132C 971.105,1131.32 968.772,1130.49 966.5,1129.5C 966.709,1128.91 967.043,1128.41 967.5,1128C 966.333,1127.5 965.5,1126.67 965,1125.5C 963.989,1126.34 962.822,1126.67 961.5,1126.5C 961.5,1125.5 961.5,1124.5 961.5,1123.5C 958.539,1123.54 956.206,1122.54 954.5,1120.5C 952.631,1122.64 951.964,1125.3 952.5,1128.5C 950.143,1128.34 947.81,1128.5 945.5,1129C 947.274,1131.37 948.941,1133.87 950.5,1136.5C 950.251,1140.25 948.251,1142.08 944.5,1142C 927.689,1141.25 911.022,1141.42 894.5,1142.5C 892.5,1141.37 890.5,1141.21 888.5,1142C 886.651,1140.32 884.651,1138.82 882.5,1137.5C 882.709,1136.91 883.043,1136.41 883.5,1136C 880.64,1133.45 877.307,1131.78 873.5,1131C 870.711,1127.71 867.711,1124.54 864.5,1121.5C 864.833,1120.83 865.167,1120.17 865.5,1119.5C 863.345,1115.66 861.011,1112 858.5,1108.5C 857.833,1105.83 857.167,1105.83 856.5,1108.5C 854.883,1107.41 854.05,1105.74 854,1103.5C 853.667,1115.83 853.333,1128.17 853,1140.5C 852.5,1141 852,1141.5 851.5,1142C 833.765,1141.6 815.765,1141.6 797.5,1142C 794.363,1139.04 793.697,1135.54 795.5,1131.5C 792.091,1131.25 788.758,1131.58 785.5,1132.5C 783.937,1131.06 782.604,1129.39 781.5,1127.5C 780.675,1126.61 779.675,1126.28 778.5,1126.5C 778.238,1125.02 778.571,1123.69 779.5,1122.5C 780.192,1123.03 780.692,1123.69 781,1124.5C 781.667,1112.83 781.667,1101.17 781,1089.5C 779.749,1094.45 778.416,1099.45 777,1104.5C 774.336,1106.35 773.503,1108.69 774.5,1111.5C 773.726,1112.71 772.893,1112.71 772,1111.5C 771.801,1113.4 770.967,1114.9 769.5,1116C 770.801,1117.62 770.801,1119.12 769.5,1120.5C 763.57,1124.02 757.904,1128.69 752.5,1134.5C 751.914,1134.29 751.414,1133.96 751,1133.5C 738.307,1140.97 724.474,1144.63 709.5,1144.5C 701.684,1144.2 693.851,1143.2 686,1141.5C 685.586,1141.96 685.086,1142.29 684.5,1142.5C 680.573,1140.28 676.406,1138.61 672,1137.5C 671.586,1137.96 671.086,1138.29 670.5,1138.5C 669.472,1136.64 667.972,1135.31 666,1134.5C 665.692,1135.31 665.192,1135.97 664.5,1136.5C 663.289,1135.73 663.289,1134.89 664.5,1134C 659.456,1132.43 655.289,1129.6 652,1125.5C 651.586,1125.96 651.086,1126.29 650.5,1126.5C 645.398,1121.57 640.898,1116.24 637,1110.5C 636.282,1111.45 635.449,1111.62 634.5,1111C 633.54,1109.58 632.707,1108.08 632,1106.5C 631.333,1107.83 630.667,1107.83 630,1106.5C 627.707,1102.37 625.207,1098.37 622.5,1094.5C 623.025,1093.81 623.692,1093.31 624.5,1093C 622.75,1091.68 620.75,1091.18 618.5,1091.5C 618.157,1089.52 618.824,1088.18 620.5,1087.5C 618.289,1077.37 616.789,1067.04 616,1056.5C 615.707,1072.6 615.874,1088.76 616.5,1105C 616.241,1116.86 615.575,1128.69 614.5,1140.5C 612.568,1141.37 610.568,1142.03 608.5,1142.5C 592.844,1141.27 577.178,1141.27 561.5,1142.5C 561.5,1141.17 561.5,1139.83 561.5,1138.5C 558.869,1137.52 556.202,1136.52 553.5,1135.5C 548.05,1139.26 542.05,1141.76 535.5,1143C 523.306,1144.98 511.306,1144.48 499.5,1141.5C 497.433,1140.87 495.6,1139.87 494,1138.5C 493.692,1139.31 493.192,1139.97 492.5,1140.5C 487.968,1136.92 483.468,1133.26 479,1129.5C 478.586,1129.96 478.086,1130.29 477.5,1130.5C 476.289,1129.73 476.289,1128.89 477.5,1128C 474.898,1127.12 472.731,1125.62 471,1123.5C 469.594,1124.67 468.428,1124.33 467.5,1122.5C 466.476,1123.85 465.143,1124.52 463.5,1124.5C 466.052,1128.6 468.385,1132.93 470.5,1137.5C 469.091,1140.38 466.757,1142.05 463.5,1142.5C 445.346,1141.17 427.179,1141.17 409,1142.5C 406.444,1140.34 403.944,1138.34 401.5,1136.5C 399.824,1135.82 399.157,1134.48 399.5,1132.5C 397.738,1132.64 396.071,1132.31 394.5,1131.5C 392.543,1129.51 390.543,1127.51 388.5,1125.5C 388.709,1124.91 389.043,1124.41 389.5,1124C 387.259,1122.26 385.592,1120.09 384.5,1117.5C 385.609,1116.04 385.109,1115.04 383,1114.5C 382.383,1113.55 382.549,1112.72 383.5,1112C 380.876,1111.42 380.209,1110.09 381.5,1108C 380.06,1105.39 378.06,1103.22 375.5,1101.5C 374.833,1102.5 374.167,1103.5 373.5,1104.5C 372.583,1103.87 371.583,1103.54 370.5,1103.5C 370.5,1102.83 370.5,1102.17 370.5,1101.5C 373.167,1100.83 373.167,1100.17 370.5,1099.5C 370.5,1098.83 370.5,1098.17 370.5,1097.5C 372.085,1096.53 373.085,1095.03 373.5,1093C 371.987,1090.98 370.654,1091.14 369.5,1093.5C 367.423,1092.01 366.423,1090.01 366.5,1087.5C 365.167,1087.5 363.833,1087.5 362.5,1087.5C 362.291,1088.92 361.791,1090.26 361,1091.5C 360.66,1102.84 360.16,1114.17 359.5,1125.5C 359.32,1129.03 359.987,1132.37 361.5,1135.5C 360.435,1139.4 357.935,1141.73 354,1142.5C 336.907,1141.67 319.74,1141.17 302.5,1141C 301.653,1138.28 300.653,1135.62 299.5,1133C 297.231,1132.24 295.064,1132.41 293,1133.5C 290.219,1133.11 288.053,1131.77 286.5,1129.5C 286.634,1064.73 286.634,1000.07 286.5,935.5C 286.833,933.167 288.167,931.833 290.5,931.5C 323.443,932.655 355.776,932.655 387.5,931.5C 388.5,931.833 389.5,932.167 390.5,932.5C 389.271,933.281 387.938,933.781 386.5,934C 388.473,934.495 390.473,934.662 392.5,934.5C 392.651,931.282 393.484,930.949 395,933.5C 397.749,932.647 400.249,933.313 402.5,935.5C 403.167,934.833 403.833,934.167 404.5,933.5C 405.167,935.167 405.833,936.833 406.5,938.5C 407.167,937.833 407.833,937.167 408.5,936.5C 409.429,939.001 410.929,939.667 413,938.5C 413.945,938.905 414.612,939.572 415,940.5C 415.308,939.692 415.808,939.025 416.5,938.5C 420.364,941.188 424.031,944.188 427.5,947.5C 429.396,948.466 431.396,948.799 433.5,948.5C 433.5,949.833 433.5,951.167 433.5,952.5C 434.833,952.5 436.167,952.5 437.5,952.5C 437.34,954.199 437.506,955.866 438,957.5C 440.355,956.869 442.522,956.869 444.5,957.5C 444.054,959.368 443.721,961.201 443.5,963C 445.264,964.669 447.264,965.836 449.5,966.5C 451.624,972.362 454.624,977.695 458.5,982.5C 457.167,983.833 457.167,985.167 458.5,986.5C 462.72,989.277 463.72,992.944 461.5,997.5C 462.923,1002.71 463.756,1008.04 464,1013.5C 464.645,1012.35 465.478,1011.35 466.5,1010.5C 465.167,1009.17 465.167,1007.83 466.5,1006.5C 469.155,1003.89 472.155,1001.72 475.5,1000C 474.748,999.329 474.414,998.496 474.5,997.5 Z M 866.5,983.5 C 867.167,983.5 867.833,983.5 868.5,983.5C 868.5,984.167 868.5,984.833 868.5,985.5C 867.167,985.5 866.5,984.833 866.5,983.5 Z M 862.5,989.5 C 866.5,990.167 866.5,990.833 862.5,991.5C 862.5,990.833 862.5,990.167 862.5,989.5 Z M 860.5,991.5 C 861.167,991.5 861.833,991.5 862.5,991.5C 862.167,992.5 861.5,993.167 860.5,993.5C 860.5,992.833 860.5,992.167 860.5,991.5 Z M 860.5,993.5 C 860.361,995.337 859.694,995.67 858.5,994.5C 858.957,993.702 859.624,993.369 860.5,993.5 Z M 948.5,999.5 C 948.783,998.711 949.283,998.044 950,997.5C 950.528,998.816 950.028,999.483 948.5,999.5 Z M 388.5,1003.5 C 386.663,1003.36 386.33,1002.69 387.5,1001.5C 388.298,1001.96 388.631,1002.62 388.5,1003.5 Z M 761.5,1003.5 C 762.167,1003.5 762.833,1003.5 763.5,1003.5C 763.5,1004.17 763.5,1004.83 763.5,1005.5C 762.167,1005.5 761.5,1004.83 761.5,1003.5 Z M 938.5,1019.5 C 939.239,1019.37 939.906,1019.54 940.5,1020C 939.695,1024.75 939.195,1029.58 939,1034.5C 938.503,1031.85 938.336,1029.19 938.5,1026.5C 937.5,1026.5 936.5,1026.5 935.5,1026.5C 935.762,1027.98 935.429,1029.31 934.5,1030.5C 933.066,1029.41 932.066,1028.08 931.5,1026.5C 932.586,1026.38 933.253,1025.71 933.5,1024.5C 933.253,1023.29 932.586,1022.62 931.5,1022.5C 931.215,1020.71 931.548,1019.05 932.5,1017.5C 936.552,1013 940.386,1008.34 944,1003.5C 944.638,1004.61 945.138,1005.78 945.5,1007C 944.491,1008.17 943.491,1009.33 942.5,1010.5C 942.709,1011.09 943.043,1011.59 943.5,1012C 942.107,1013.17 941.273,1014.67 941,1016.5C 939.975,1012.9 938.475,1012.9 936.5,1016.5C 937.612,1017.27 938.279,1018.27 938.5,1019.5 Z M 604.5,1007.5 C 605.167,1007.5 605.833,1007.5 606.5,1007.5C 606.5,1008.17 606.5,1008.83 606.5,1009.5C 605.833,1009.5 605.167,1009.5 604.5,1009.5C 604.5,1008.83 604.5,1008.17 604.5,1007.5 Z M 376.5,1015.5 C 378.337,1015.64 378.67,1016.31 377.5,1017.5C 376.702,1017.04 376.369,1016.38 376.5,1015.5 Z M 931.5,1022.5 C 931.5,1023.83 931.5,1025.17 931.5,1026.5C 929.492,1027.99 927.325,1029.32 925,1030.5C 924.167,1030.33 923.333,1030.17 922.5,1030C 925.368,1027.3 928.368,1024.8 931.5,1022.5 Z M 616.5,1028.5 C 618.337,1028.64 618.67,1029.31 617.5,1030.5C 616.702,1030.04 616.369,1029.38 616.5,1028.5 Z M 466.5,1031.5 C 468.332,1032.14 468.665,1033.14 467.5,1034.5C 466.614,1033.68 466.281,1032.68 466.5,1031.5 Z M 1017.5,1032.5 C 1023.26,1030.95 1028.93,1031.45 1034.5,1034C 1030.58,1034.98 1026.91,1034.48 1023.5,1032.5C 1022.83,1033.17 1022.17,1033.83 1021.5,1034.5C 1020.48,1033.15 1019.14,1032.48 1017.5,1032.5 Z M 919.5,1038.5 C 919.181,1036.25 919.681,1034.25 921,1032.5C 921.167,1033.5 921.333,1034.5 921.5,1035.5C 921.36,1037.03 920.693,1038.03 919.5,1038.5 Z M 533.5,1033.5 C 534.458,1033.95 535.292,1034.62 536,1035.5C 536.718,1034.55 537.551,1034.38 538.5,1035C 537.012,1036.72 535.179,1037.88 533,1038.5C 532.308,1037.97 531.808,1037.31 531.5,1036.5C 532.612,1035.73 533.279,1034.73 533.5,1033.5 Z M 464.5,1036.5 C 462.663,1036.36 462.33,1035.69 463.5,1034.5C 464.298,1034.96 464.631,1035.62 464.5,1036.5 Z M 780.5,1034.5 C 782.298,1038.22 782.798,1042.22 782,1046.5C 781.803,1043.31 780.97,1040.31 779.5,1037.5C 780.127,1036.58 780.461,1035.58 780.5,1034.5 Z M 464.5,1036.5 C 466.5,1036.5 468.5,1036.5 470.5,1036.5C 470.157,1038.48 470.824,1039.82 472.5,1040.5C 473.844,1042.03 475.511,1043.37 477.5,1044.5C 478.251,1043.62 478.751,1042.62 479,1041.5C 483.052,1041.62 487.219,1041.79 491.5,1042C 493.481,1042.61 493.815,1043.61 492.5,1045C 490.444,1045.31 488.444,1045.81 486.5,1046.5C 483.478,1045.59 480.812,1046.26 478.5,1048.5C 477.833,1045.83 477.167,1045.83 476.5,1048.5C 474.824,1049.18 474.157,1050.52 474.5,1052.5C 473.833,1052.5 473.167,1052.5 472.5,1052.5C 472.38,1051.41 471.713,1050.75 470.5,1050.5C 469.133,1051.23 467.8,1051.89 466.5,1052.5C 465.833,1049.83 465.167,1049.83 464.5,1052.5C 462.922,1053.07 461.588,1054.07 460.5,1055.5C 461.167,1056.17 461.833,1056.83 462.5,1057.5C 461.388,1058.27 460.721,1059.27 460.5,1060.5C 459.833,1060.5 459.167,1060.5 458.5,1060.5C 457.833,1057.83 457.167,1057.83 456.5,1060.5C 455.624,1060.37 454.957,1060.7 454.5,1061.5C 455.243,1062.18 455.909,1062.85 456.5,1063.5C 455.167,1063.5 454.5,1064.17 454.5,1065.5C 452.5,1065.5 450.5,1065.5 448.5,1065.5C 447.129,1061.95 446.629,1058.28 447,1054.5C 447.626,1052.01 448.459,1052.01 449.5,1054.5C 450.462,1050.58 451.962,1046.91 454,1043.5C 455.461,1044.88 456.294,1044.55 456.5,1042.5C 459.247,1042.81 461.914,1042.48 464.5,1041.5C 462.604,1040.53 460.604,1040.2 458.5,1040.5C 458.279,1036.2 459.612,1035.54 462.5,1038.5C 463.713,1038.25 464.38,1037.59 464.5,1036.5 Z M 1036.5,1036.5 C 1037.47,1036.99 1038.47,1037.49 1039.5,1038C 1037.84,1038.73 1036.84,1038.23 1036.5,1036.5 Z M 763.5,1071.5 C 762.265,1071.28 761.265,1070.61 760.5,1069.5C 758.568,1070.52 756.568,1070.69 754.5,1070C 755.902,1068.66 755.569,1067.82 753.5,1067.5C 751.482,1068.82 749.482,1068.82 747.5,1067.5C 746.306,1066.22 744.64,1065.56 742.5,1065.5C 735.188,1066.3 727.854,1066.64 720.5,1066.5C 720.719,1065.32 720.386,1064.32 719.5,1063.5C 717.141,1064.43 714.808,1066.1 712.5,1068.5C 713.682,1070.47 713.015,1071.8 710.5,1072.5C 711.5,1073.33 712.5,1074.17 713.5,1075C 710.113,1075.88 708.446,1078.05 708.5,1081.5C 706.396,1081.2 704.396,1081.53 702.5,1082.5C 704.981,1083.86 704.648,1084.86 701.5,1085.5C 700.943,1083.67 699.943,1082.34 698.5,1081.5C 698.5,1080.83 698.5,1080.17 698.5,1079.5C 697.265,1079.28 696.265,1078.61 695.5,1077.5C 694.808,1078.03 694.308,1078.69 694,1079.5C 693.362,1076.4 692.195,1073.73 690.5,1071.5C 688.76,1065.82 689.426,1060.49 692.5,1055.5C 692.167,1054.83 691.833,1054.17 691.5,1053.5C 694.005,1048.15 697.505,1043.49 702,1039.5C 702.414,1039.96 702.914,1040.29 703.5,1040.5C 705.05,1038.04 707.05,1037.37 709.5,1038.5C 711.739,1045.77 716.739,1049.61 724.5,1050C 723.692,1050.31 723.025,1050.81 722.5,1051.5C 725.342,1052 726.675,1053.67 726.5,1056.5C 744.232,1057.05 761.898,1055.88 779.5,1053C 780.967,1051.9 781.801,1050.4 782,1048.5C 782.452,1059.51 782.285,1070.51 781.5,1081.5C 777.377,1081.2 773.377,1080.37 769.5,1079C 768.359,1078.26 768.359,1077.43 769.5,1076.5C 768.04,1074.03 766.04,1072.36 763.5,1071.5 Z M 472.5,1040.5 C 472.639,1038.66 473.306,1038.33 474.5,1039.5C 474.043,1040.3 473.376,1040.63 472.5,1040.5 Z M 917.5,1038.5 C 918.167,1038.5 918.833,1038.5 919.5,1038.5C 919.5,1039.83 918.833,1040.5 917.5,1040.5C 917.5,1039.83 917.5,1039.17 917.5,1038.5 Z M 915.5,1040.5 C 916.167,1040.5 916.833,1040.5 917.5,1040.5C 917.5,1041.17 917.5,1041.83 917.5,1042.5C 916.167,1042.5 915.5,1041.83 915.5,1040.5 Z M 912.5,1042.5 C 913.793,1044.36 913.793,1046.36 912.5,1048.5C 911.713,1047.76 911.047,1046.92 910.5,1046C 911.823,1045.18 912.489,1044.02 912.5,1042.5 Z M 917.5,1042.5 C 919.337,1042.64 919.67,1043.31 918.5,1044.5C 917.702,1044.04 917.369,1043.38 917.5,1042.5 Z M 908.5,1047.5 C 909.404,1048.21 909.737,1049.21 909.5,1050.5C 908.448,1050.65 907.448,1050.48 906.5,1050C 907.756,1049.58 908.423,1048.75 908.5,1047.5 Z M 476.5,1048.5 C 477.167,1048.5 477.833,1048.5 478.5,1048.5C 477.833,1051.17 477.167,1051.17 476.5,1048.5 Z M 917.5,1048.5 C 919.337,1048.64 919.67,1049.31 918.5,1050.5C 917.702,1050.04 917.369,1049.38 917.5,1048.5 Z M 940.5,1054.5 C 941.833,1056.5 943.167,1058.5 944.5,1060.5C 941.5,1060.5 938.5,1060.5 935.5,1060.5C 935.579,1058.33 936.246,1056.33 937.5,1054.5C 936.067,1052.66 935.567,1050.66 936,1048.5C 937.298,1050.82 938.798,1052.82 940.5,1054.5 Z M 940.5,1048.5 C 943.797,1048.33 944.131,1049 941.5,1050.5C 940.702,1050.04 940.369,1049.38 940.5,1048.5 Z M 464.5,1052.5 C 465.167,1052.5 465.833,1052.5 466.5,1052.5C 465.833,1055.17 465.167,1055.17 464.5,1052.5 Z M 472.5,1052.5 C 472.5,1053.83 471.833,1054.5 470.5,1054.5C 470.5,1053.17 471.167,1052.5 472.5,1052.5 Z M 904.5,1052.5 C 905.147,1053.27 905.48,1054.27 905.5,1055.5C 904.921,1057.62 904.088,1059.62 903,1061.5C 902.535,1060.07 901.701,1058.9 900.5,1058C 902.076,1056.27 903.41,1054.44 904.5,1052.5 Z M 907.5,1052.5 C 909.337,1052.64 909.67,1053.31 908.5,1054.5C 907.702,1054.04 907.369,1053.38 907.5,1052.5 Z M 940.5,1054.5 C 940.639,1052.66 941.306,1052.33 942.5,1053.5C 942.043,1054.3 941.376,1054.63 940.5,1054.5 Z M 470.5,1054.5 C 470.108,1056.18 469.608,1057.85 469,1059.5C 468.833,1058.67 468.667,1057.83 468.5,1057C 468.684,1055.62 469.351,1054.79 470.5,1054.5 Z M 909.5,1058.5 C 909.639,1056.66 910.306,1056.33 911.5,1057.5C 911.043,1058.3 910.376,1058.63 909.5,1058.5 Z M 913.5,1056.5 C 915.337,1056.64 915.67,1057.31 914.5,1058.5C 913.702,1058.04 913.369,1057.38 913.5,1056.5 Z M 948.5,1058.5 C 946.663,1058.36 946.33,1057.69 947.5,1056.5C 948.298,1056.96 948.631,1057.62 948.5,1058.5 Z M 444.5,1063.5 C 443.167,1063.5 441.833,1063.5 440.5,1063.5C 441.725,1062.06 442.725,1060.4 443.5,1058.5C 444.452,1060.05 444.785,1061.71 444.5,1063.5 Z M 466.5,1060.5 C 464.663,1060.36 464.33,1059.69 465.5,1058.5C 466.298,1058.96 466.631,1059.62 466.5,1060.5 Z M 909.5,1058.5 C 909.5,1059.17 909.5,1059.83 909.5,1060.5C 906.833,1059.83 906.833,1059.17 909.5,1058.5 Z M 948.5,1058.5 C 949.833,1058.5 950.5,1059.17 950.5,1060.5C 949.833,1060.5 949.167,1060.5 948.5,1060.5C 948.5,1059.83 948.5,1059.17 948.5,1058.5 Z M 909.5,1060.5 C 910.873,1060.34 912.207,1060.51 913.5,1061C 912.244,1061.42 911.577,1062.25 911.5,1063.5C 909.952,1063.18 909.285,1062.18 909.5,1060.5 Z M 440.5,1063.5 C 439.833,1066.17 439.167,1068.83 438.5,1071.5C 433.137,1071.77 431.471,1069.44 433.5,1064.5C 435.451,1064.77 436.951,1064.11 438,1062.5C 438.671,1063.25 439.504,1063.59 440.5,1063.5 Z M 921.5,1073.5 C 924.403,1075.1 927.737,1076.1 931.5,1076.5C 926.167,1077.83 926.167,1079.17 931.5,1080.5C 930.833,1081.17 930.167,1081.83 929.5,1082.5C 931.766,1083.31 934.1,1083.81 936.5,1084C 934.327,1085.86 933.993,1088.03 935.5,1090.5C 930.306,1092.06 930.306,1093.06 935.5,1093.5C 935.357,1095.26 935.691,1096.93 936.5,1098.5C 935.985,1100.23 935.318,1101.89 934.5,1103.5C 933.5,1102.5 932.5,1101.5 931.5,1100.5C 933.401,1099.06 933.734,1097.4 932.5,1095.5C 931.065,1097.4 929.398,1097.73 927.5,1096.5C 928.167,1095.83 928.833,1095.17 929.5,1094.5C 927.167,1092.17 924.833,1089.83 922.5,1087.5C 922.104,1083.74 921.104,1080.4 919.5,1077.5C 918.167,1074.83 916.167,1072.83 913.5,1071.5C 912.833,1070.17 912.167,1068.83 911.5,1067.5C 914.167,1066.83 914.167,1066.17 911.5,1065.5C 911.5,1064.83 911.5,1064.17 911.5,1063.5C 912.583,1063.46 913.583,1063.13 914.5,1062.5C 916.638,1066.48 918.971,1070.15 921.5,1073.5 Z M 444.5,1063.5 C 446.337,1063.64 446.67,1064.31 445.5,1065.5C 444.702,1065.04 444.369,1064.38 444.5,1063.5 Z M 456.5,1063.5 C 457.167,1063.5 457.833,1063.5 458.5,1063.5C 458.5,1064.83 458.5,1066.17 458.5,1067.5C 457.167,1067.5 455.833,1067.5 454.5,1067.5C 454.5,1066.83 454.5,1066.17 454.5,1065.5C 455.833,1065.5 456.5,1064.83 456.5,1063.5 Z M 904.5,1063.5 C 905.675,1063.28 906.675,1063.61 907.5,1064.5C 905.948,1065.8 904.948,1065.46 904.5,1063.5 Z M 944.5,1063.5 C 946.337,1063.64 946.67,1064.31 945.5,1065.5C 944.702,1065.04 944.369,1064.38 944.5,1063.5 Z M 954.5,1063.5 C 955.289,1063.78 955.956,1064.28 956.5,1065C 955.184,1065.53 954.517,1065.03 954.5,1063.5 Z M 911.5,1065.5 C 911.5,1066.17 911.5,1066.83 911.5,1067.5C 908.833,1066.83 908.833,1066.17 911.5,1065.5 Z M 454.5,1067.5 C 453.833,1068.83 453.167,1070.17 452.5,1071.5C 450.824,1070.82 450.157,1069.48 450.5,1067.5C 451.833,1067.5 453.167,1067.5 454.5,1067.5 Z M 956.5,1067.5 C 958.086,1068.15 959.753,1068.65 961.5,1069C 960.667,1069.17 959.833,1069.33 959,1069.5C 957.624,1069.32 956.791,1068.65 956.5,1067.5 Z M 464.5,1120.5 C 464.25,1121.92 463.417,1122.92 462,1123.5C 459.08,1116.7 455.58,1110.2 451.5,1104C 452.423,1101.96 452.756,1099.79 452.5,1097.5C 450.856,1097.29 449.356,1097.62 448,1098.5C 447.139,1095.47 445.639,1092.81 443.5,1090.5C 445.024,1088.21 444.691,1086.21 442.5,1084.5C 444.173,1082.48 444.84,1080.14 444.5,1077.5C 446.916,1076.03 449.583,1075.37 452.5,1075.5C 452.5,1074.17 452.5,1072.83 452.5,1071.5C 454.036,1073.03 455.036,1075.03 455.5,1077.5C 456.167,1074.83 456.833,1072.17 457.5,1069.5C 458.281,1070.73 458.781,1072.06 459,1073.5C 457.615,1082.42 457.115,1091.42 457.5,1100.5C 458.253,1102.75 459.586,1104.59 461.5,1106C 460.646,1107.88 460.979,1109.71 462.5,1111.5C 461.833,1112.17 461.167,1112.83 460.5,1113.5C 461.67,1116.1 463.003,1118.44 464.5,1120.5 Z M 921.5,1073.5 C 921.238,1072.02 921.571,1070.69 922.5,1069.5C 922.833,1070.17 923.167,1070.83 923.5,1071.5C 923.253,1072.71 922.586,1073.38 921.5,1073.5 Z M 964.5,1070.5 C 968.486,1073.22 967.82,1074.06 962.5,1073C 963.381,1072.29 964.047,1071.46 964.5,1070.5 Z M 444.5,1071.5 C 446.337,1071.64 446.67,1072.31 445.5,1073.5C 444.702,1073.04 444.369,1072.38 444.5,1071.5 Z M 913.5,1071.5 C 913.5,1072.83 912.833,1073.5 911.5,1073.5C 911.5,1072.17 912.167,1071.5 913.5,1071.5 Z M 954.5,1071.5 C 956.5,1071.5 958.5,1071.5 960.5,1071.5C 960.5,1072.83 960.5,1074.17 960.5,1075.5C 964.151,1075.75 967.651,1075.75 971,1075.5C 972.067,1076.19 973.234,1076.69 974.5,1077C 969.335,1077.96 964.335,1078.46 959.5,1078.5C 957.775,1077.99 956.108,1077.32 954.5,1076.5C 955.833,1075.83 957.167,1075.17 958.5,1074.5C 956.668,1073.94 955.335,1072.94 954.5,1071.5 Z M 444.5,1077.5 C 443.833,1077.5 443.167,1077.5 442.5,1077.5C 443.167,1074.83 443.833,1074.83 444.5,1077.5 Z M 933.5,1075.5 C 934.675,1075.28 935.675,1075.61 936.5,1076.5C 934.948,1077.8 933.948,1077.46 933.5,1075.5 Z M 442.5,1077.5 C 442.361,1079.34 441.694,1079.67 440.5,1078.5C 440.957,1077.7 441.624,1077.37 442.5,1077.5 Z M 919.5,1077.5 C 919.361,1079.34 918.694,1079.67 917.5,1078.5C 917.957,1077.7 918.624,1077.37 919.5,1077.5 Z M 362.5,1087.5 C 361.326,1086.49 360.66,1085.15 360.5,1083.5C 363.167,1082.83 363.167,1082.17 360.5,1081.5C 360.586,1080.5 360.252,1079.67 359.5,1079C 362.669,1078 365.336,1078.67 367.5,1081C 365.594,1083.06 363.927,1085.23 362.5,1087.5 Z M 938.5,1081.5 C 938.517,1079.97 939.184,1079.47 940.5,1080C 939.956,1080.72 939.289,1081.22 938.5,1081.5 Z M 698.5,1081.5 C 698.361,1083.34 697.694,1083.67 696.5,1082.5C 696.957,1081.7 697.624,1081.37 698.5,1081.5 Z M 368.5,1085.5 C 368.5,1086.83 367.833,1087.5 366.5,1087.5C 366.5,1086.17 367.167,1085.5 368.5,1085.5 Z M 620.5,1087.5 C 621.473,1087.99 622.473,1088.49 623.5,1089C 621.843,1089.73 620.843,1089.23 620.5,1087.5 Z M 1011.5,1089.5 C 1012.21,1088.6 1013.21,1088.26 1014.5,1088.5C 1014.65,1089.55 1014.48,1090.55 1014,1091.5C 1013.58,1090.24 1012.75,1089.58 1011.5,1089.5 Z M 532.5,1089.5 C 533.873,1089.34 535.207,1089.51 536.5,1090C 534.788,1091.75 532.788,1092.42 530.5,1092C 531.756,1091.58 532.423,1090.75 532.5,1089.5 Z M 370.5,1099.5 C 373.167,1100.17 373.167,1100.83 370.5,1101.5C 370.5,1100.83 370.5,1100.17 370.5,1099.5 Z M 929.5,1104.5 C 929.56,1103.96 929.893,1103.62 930.5,1103.5C 931.583,1104.36 931.749,1105.36 931,1106.5C 930.722,1105.58 930.222,1104.92 929.5,1104.5 Z M 858.5,1108.5 C 857.833,1108.5 857.167,1108.5 856.5,1108.5C 857.167,1105.83 857.833,1105.83 858.5,1108.5 Z M 464.5,1120.5 C 464.218,1116.41 464.885,1115.91 466.5,1119C 466.164,1120.03 465.497,1120.53 464.5,1120.5 Z M 954.5,1118.5 C 952.972,1118.48 952.472,1117.82 953,1116.5C 953.717,1117.04 954.217,1117.71 954.5,1118.5 Z M 769.5,1120.5 C 766.999,1120.49 766.832,1119.82 769,1118.5C 769.464,1119.09 769.631,1119.76 769.5,1120.5 Z M 948.5,1118.5 C 949.748,1119.33 950.415,1120.67 950.5,1122.5C 950.167,1123.83 949.833,1125.17 949.5,1126.5C 948.52,1123.91 948.187,1121.25 948.5,1118.5 Z M 954.5,1118.5 C 956.933,1119.55 956.933,1120.21 954.5,1120.5C 954.5,1119.83 954.5,1119.17 954.5,1118.5 Z M 944.5,1126.5 C 944.639,1124.66 945.306,1124.33 946.5,1125.5C 946.043,1126.3 945.376,1126.63 944.5,1126.5 Z M 401.5,1136.5 C 401.329,1133.2 401.995,1132.87 403.5,1135.5C 403.043,1136.3 402.376,1136.63 401.5,1136.5 Z"/></g>
<g><path style="opacity:1" fill="#f1f0ef" d="M 837.5,934.5 C 838.5,934.5 839.5,934.5 840.5,934.5C 840.5,936.833 840.5,939.167 840.5,941.5C 844.571,941.234 848.571,941.567 852.5,942.5C 852.987,965.515 853.654,981.848 854.5,991.5C 856.5,991.5 858.5,991.5 860.5,991.5C 860.5,992.167 860.5,992.833 860.5,993.5C 861.5,993.167 862.167,992.5 862.5,991.5C 866.5,990.833 866.5,990.167 862.5,989.5C 863.364,987.081 864.697,985.081 866.5,983.5C 866.5,984.833 867.167,985.5 868.5,985.5C 868.5,984.833 868.5,984.167 868.5,983.5C 869.496,983.414 870.329,983.748 871,984.5C 874.321,982.961 877.821,981.961 881.5,981.5C 890.743,982.548 900.076,982.548 909.5,981.5C 911.265,982.461 913.265,982.795 915.5,982.5C 915.281,981.325 915.614,980.325 916.5,979.5C 917.429,980.689 917.762,982.022 917.5,983.5C 921.702,983.183 925.702,983.517 929.5,984.5C 910.659,984.17 891.993,984.503 873.5,985.5C 866.167,995.833 858.833,1006.17 851.5,1016.5C 851.167,1016.5 850.833,1016.5 850.5,1016.5C 850.5,992.5 850.5,968.5 850.5,944.5C 846.167,944.5 841.833,944.5 837.5,944.5C 837.5,941.5 837.5,938.5 837.5,935.5C 837.5,935.167 837.5,934.833 837.5,934.5 Z M 866.5,983.5 C 867.167,983.5 867.833,983.5 868.5,983.5C 868.5,984.167 868.5,984.833 868.5,985.5C 867.167,985.5 866.5,984.833 866.5,983.5 Z M 862.5,989.5 C 866.5,990.167 866.5,990.833 862.5,991.5C 862.5,990.833 862.5,990.167 862.5,989.5 Z M 860.5,991.5 C 861.167,991.5 861.833,991.5 862.5,991.5C 862.167,992.5 861.5,993.167 860.5,993.5C 860.5,992.833 860.5,992.167 860.5,991.5 Z M 860.5,993.5 C 859.624,993.369 858.957,993.702 858.5,994.5C 859.694,995.67 860.361,995.337 860.5,993.5 Z"/></g>
<g><path style="opacity:1" fill="#f9d51c" d="M 425.5,952.5 C 413.992,947.791 401.992,945.291 389.5,945C 360.835,944.5 332.169,944.333 303.5,944.5C 303.5,1006.17 303.5,1067.83 303.5,1129.5C 298.901,1129.8 294.401,1129.47 290,1128.5C 289.333,1064.17 289.333,999.833 290,935.5C 304.427,934.837 318.927,934.504 333.5,934.5C 351.523,934.419 369.523,934.919 387.5,936C 400.239,937.578 411.905,941.911 422.5,949C 423.71,950.039 424.71,951.206 425.5,952.5 Z"/></g>
<g><path style="opacity:1" fill="#f9d300" d="M 837.5,935.5 C 837.5,938.5 837.5,941.5 837.5,944.5C 824.5,944.5 811.5,944.5 798.5,944.5C 798.5,1005.83 798.5,1067.17 798.5,1128.5C 794.167,1128.5 789.833,1128.5 785.5,1128.5C 785.5,1064.17 785.5,999.833 785.5,935.5C 802.833,935.5 820.167,935.5 837.5,935.5 Z"/></g>
<g><path style="opacity:1" fill="#010000" d="M 425.5,952.5 C 451.488,967.141 462.654,989.475 459,1019.5C 456.615,1040.7 446.115,1056.37 427.5,1066.5C 440.195,1090.18 452.862,1113.85 465.5,1137.5C 447.007,1138.5 428.341,1138.83 409.5,1138.5C 407.595,1135.7 405.929,1132.7 404.5,1129.5C 395.346,1111.86 386.18,1094.19 377,1076.5C 374.281,1075.56 371.448,1075.22 368.5,1075.5C 364.5,1075.5 360.5,1075.5 356.5,1075.5C 356.5,1096.5 356.5,1117.5 356.5,1138.5C 338.833,1138.5 321.167,1138.5 303.5,1138.5C 303.5,1135.5 303.5,1132.5 303.5,1129.5C 303.5,1067.83 303.5,1006.17 303.5,944.5C 332.169,944.333 360.835,944.5 389.5,945C 401.992,945.291 413.992,947.791 425.5,952.5 Z M 388.5,1003.5 C 388.631,1002.62 388.298,1001.96 387.5,1001.5C 386.33,1002.69 386.663,1003.36 388.5,1003.5 Z M 376.5,1015.5 C 376.369,1016.38 376.702,1017.04 377.5,1017.5C 378.67,1016.31 378.337,1015.64 376.5,1015.5 Z M 362.5,1087.5 C 361.326,1086.49 360.66,1085.15 360.5,1083.5C 363.167,1082.83 363.167,1082.17 360.5,1081.5C 360.586,1080.5 360.252,1079.67 359.5,1079C 362.669,1078 365.336,1078.67 367.5,1081C 365.594,1083.06 363.927,1085.23 362.5,1087.5 Z M 368.5,1085.5 C 368.5,1086.83 367.833,1087.5 366.5,1087.5C 366.5,1086.17 367.167,1085.5 368.5,1085.5 Z M 370.5,1099.5 C 373.167,1100.17 373.167,1100.83 370.5,1101.5C 370.5,1100.83 370.5,1100.17 370.5,1099.5 Z M 401.5,1136.5 C 402.376,1136.63 403.043,1136.3 403.5,1135.5C 401.995,1132.87 401.329,1133.2 401.5,1136.5 Z"/></g>
<g><path style="opacity:1" fill="#000000" d="M 837.5,944.5 C 841.833,944.5 846.167,944.5 850.5,944.5C 850.5,968.5 850.5,992.5 850.5,1016.5C 850.168,1025.52 850.502,1034.52 851.5,1043.5C 852.107,1043.38 852.44,1043.04 852.5,1042.5C 863.923,1026.65 875.59,1010.99 887.5,995.5C 906.836,995.333 926.17,995.5 945.5,996C 929.486,1016.68 913.486,1037.34 897.5,1058C 913.91,1084.82 930.577,1111.49 947.5,1138C 927.492,1138.83 907.492,1138.67 887.5,1137.5C 885.808,1134.77 884.142,1132.1 882.5,1129.5C 874.775,1115.72 866.775,1102.06 858.5,1088.5C 856.722,1090.26 855.389,1092.26 854.5,1094.5C 853.206,1095.29 852.039,1096.29 851,1097.5C 850.5,1111.16 850.333,1124.83 850.5,1138.5C 833.167,1138.5 815.833,1138.5 798.5,1138.5C 798.5,1135.5 798.5,1132.5 798.5,1129.5C 798.5,1129.17 798.5,1128.83 798.5,1128.5C 798.5,1067.17 798.5,1005.83 798.5,944.5C 811.5,944.5 824.5,944.5 837.5,944.5 Z M 858.5,1108.5 C 857.833,1108.5 857.167,1108.5 856.5,1108.5C 857.167,1105.83 857.833,1105.83 858.5,1108.5 Z"/></g>
<g><path style="opacity:1" fill="#f9faf9" d="M 909.5,981.5 C 909.62,980.414 910.287,979.747 911.5,979.5C 912.167,979.833 912.833,980.167 913.5,980.5C 912.311,981.429 910.978,981.762 909.5,981.5 Z"/></g>
<g><path style="opacity:1" fill="#f9faf9" d="M 868.5,983.5 C 867.833,983.5 867.167,983.5 866.5,983.5C 867.167,980.833 867.833,980.833 868.5,983.5 Z"/></g>
<g><path style="opacity:1" fill="#f7d10b" d="M 587.5,1001.5 C 564.041,991.4 540.041,989.9 515.5,997C 498.833,1002.5 487.166,1013.34 480.5,1029.5C 475.507,1029.08 470.507,1028.75 465.5,1028.5C 467.691,1012.14 476.024,999.973 490.5,992C 503.4,985.526 517.066,982.692 531.5,983.5C 548.175,982.601 563.841,986.101 578.5,994C 581.69,996.364 584.69,998.864 587.5,1001.5 Z"/></g>
<g><path style="opacity:1" fill="#f6d109" d="M 745.5,1000.5 C 715.376,987.669 686.709,990.169 659.5,1008C 642.132,1023.74 633.465,1043.41 633.5,1067C 633.616,1087.19 639.949,1105.02 652.5,1120.5C 634.661,1109.11 624.161,1092.78 621,1071.5C 616.615,1044.85 623.449,1021.68 641.5,1002C 652.589,991.957 665.589,985.957 680.5,984C 700.222,980.937 718.889,983.937 736.5,993C 739.94,995.042 742.94,997.542 745.5,1000.5 Z"/></g>
<g><path style="opacity:1" fill="#f6d10e" d="M 1063.5,1000.5 C 1033.62,988.813 1004.29,989.98 975.5,1004C 959.834,1014.84 953.667,1029.67 957,1048.5C 958.362,1054.22 960.529,1059.55 963.5,1064.5C 949.414,1057.68 942.414,1046.35 942.5,1030.5C 944.086,1006.4 956.752,991.568 980.5,986C 1002.45,980.975 1024.12,981.975 1045.5,989C 1052.38,991.598 1058.38,995.431 1063.5,1000.5 Z"/></g>
<g><path style="opacity:1" fill="#f9faf9" d="M 854.5,985.5 C 855.586,985.62 856.253,986.287 856.5,987.5C 856.167,988.167 855.833,988.833 855.5,989.5C 854.571,988.311 854.238,986.978 854.5,985.5 Z"/></g>
<g><path style="opacity:1" fill="#f8d203" d="M 873.5,985.5 C 893.169,985.333 912.836,985.5 932.5,986C 930.38,988.409 928.38,990.909 926.5,993.5C 913.34,994.167 900.34,994.833 887.5,995.5C 875.59,1010.99 863.923,1026.65 852.5,1042.5C 851.507,1034.02 851.174,1025.35 851.5,1016.5C 858.833,1006.17 866.167,995.833 873.5,985.5 Z"/></g>
<g><path style="opacity:1" fill="#f9f9f9" d="M 1341.5,1136.5 C 1344.83,1137.83 1348.17,1137.83 1351.5,1136.5C 1365.41,1133.76 1373.91,1125.43 1377,1111.5C 1377.5,1070.5 1377.67,1029.5 1377.5,988.5C 1377.5,988.167 1377.5,987.833 1377.5,987.5C 1394.66,986.503 1411.99,986.17 1429.5,986.5C 1429.67,1031.83 1429.5,1077.17 1429,1122.5C 1422.46,1154.71 1402.96,1173.87 1370.5,1180C 1362.27,1181.88 1353.94,1182.71 1345.5,1182.5C 1317.64,1183.83 1294.48,1174.17 1276,1153.5C 1269.33,1144.17 1265,1133.84 1263,1122.5C 1262.5,1077.83 1262.33,1033.17 1262.5,988.5C 1262.5,988.167 1262.5,987.833 1262.5,987.5C 1279.66,986.503 1296.99,986.17 1314.5,986.5C 1314.33,1027.83 1314.5,1069.17 1315,1110.5C 1317.78,1125.45 1326.62,1134.12 1341.5,1136.5 Z"/></g>
<g><path style="opacity:1" fill="#f9f9f8" d="M 389.5,989.5 C 392.327,997.571 392.16,1005.57 389,1013.5C 385.013,1018.58 379.846,1021.74 373.5,1023C 367.888,1024.13 362.221,1024.63 356.5,1024.5C 356.5,1012.17 356.5,999.833 356.5,987.5C 367.64,986.985 378.64,987.652 389.5,989.5 Z M 388.5,1003.5 C 388.631,1002.62 388.298,1001.96 387.5,1001.5C 386.33,1002.69 386.663,1003.36 388.5,1003.5 Z M 376.5,1015.5 C 376.369,1016.38 376.702,1017.04 377.5,1017.5C 378.67,1016.31 378.337,1015.64 376.5,1015.5 Z"/></g>
<g><path style="opacity:1" fill="#f9faf9" d="M 483.5,987.5 C 485.337,987.639 485.67,988.306 484.5,989.5C 483.702,989.043 483.369,988.376 483.5,987.5 Z"/></g>
<g><path style="opacity:1" fill="#f9faf9" d="M 860.5,989.5 C 858.663,989.361 858.33,988.694 859.5,987.5C 860.298,987.957 860.631,988.624 860.5,989.5 Z"/></g>
<g><path style="opacity:1" fill="#614f00" d="M 1262.5,987.5 C 1262.5,987.833 1262.5,988.167 1262.5,988.5C 1257.17,988.5 1251.83,988.5 1246.5,988.5C 1246.5,1031.5 1246.5,1074.5 1246.5,1117.5C 1245.5,1074.34 1245.17,1031 1245.5,987.5C 1251.17,987.5 1256.83,987.5 1262.5,987.5 Z"/></g>
<g><path style="opacity:1" fill="#030301" d="M 1262.5,988.5 C 1262.33,1033.17 1262.5,1077.83 1263,1122.5C 1265,1133.84 1269.33,1144.17 1276,1153.5C 1294.48,1174.17 1317.64,1183.83 1345.5,1182.5C 1320.72,1187.31 1297.39,1183.15 1275.5,1170C 1257.13,1157.43 1247.46,1139.93 1246.5,1117.5C 1246.5,1074.5 1246.5,1031.5 1246.5,988.5C 1251.83,988.5 1257.17,988.5 1262.5,988.5 Z"/></g>
<g><path style="opacity:1" fill="#393102" d="M 1377.5,987.5 C 1377.5,987.833 1377.5,988.167 1377.5,988.5C 1372.17,988.5 1366.83,988.5 1361.5,988.5C 1361.83,1029 1361.5,1069.34 1360.5,1109.5C 1360.5,1068.83 1360.5,1028.17 1360.5,987.5C 1366.17,987.5 1371.83,987.5 1377.5,987.5 Z"/></g>
<g><path style="opacity:1" fill="#040404" d="M 1377.5,988.5 C 1377.67,1029.5 1377.5,1070.5 1377,1111.5C 1373.91,1125.43 1365.41,1133.76 1351.5,1136.5C 1348.94,1136.8 1346.61,1136.47 1344.5,1135.5C 1354.9,1130.05 1360.23,1121.38 1360.5,1109.5C 1361.5,1069.34 1361.83,1029 1361.5,988.5C 1366.83,988.5 1372.17,988.5 1377.5,988.5 Z"/></g>
<g><path style="opacity:1" fill="#f9faf9" d="M 481.5,991.5 C 479.663,991.361 479.33,990.694 480.5,989.5C 481.298,989.957 481.631,990.624 481.5,991.5 Z"/></g>
<g><path style="opacity:1" fill="#f9faf9" d="M 860.5,989.5 C 861.167,989.5 861.833,989.5 862.5,989.5C 862.5,990.167 862.5,990.833 862.5,991.5C 861.833,991.5 861.167,991.5 860.5,991.5C 860.5,990.833 860.5,990.167 860.5,989.5 Z"/></g>
<g><path style="opacity:1" fill="#f9faf9" d="M 956.5,991.5 C 954.663,991.361 954.33,990.694 955.5,989.5C 956.298,989.957 956.631,990.624 956.5,991.5 Z"/></g>
<g><path style="opacity:1" fill="#f4cf09" d="M 389.5,989.5 C 402.669,994.156 407.836,1003.49 405,1017.5C 402.461,1025.7 396.961,1030.87 388.5,1033C 377.889,1034.37 367.222,1034.87 356.5,1034.5C 356.5,1031.17 356.5,1027.83 356.5,1024.5C 362.221,1024.63 367.888,1024.13 373.5,1023C 379.846,1021.74 385.013,1018.58 389,1013.5C 392.16,1005.57 392.327,997.571 389.5,989.5 Z"/></g>
<g><path style="opacity:1" fill="#f9faf9" d="M 476.5,991.5 C 478.337,991.639 478.67,992.306 477.5,993.5C 476.702,993.043 476.369,992.376 476.5,991.5 Z"/></g>
<g><path style="opacity:1" fill="#f9faf9" d="M 747.5,993.5 C 747.639,991.663 748.306,991.33 749.5,992.5C 749.043,993.298 748.376,993.631 747.5,993.5 Z"/></g>
<g><path style="opacity:1" fill="#020201" d="M 587.5,1001.5 C 601.409,1008.25 609.909,1019.25 613,1034.5C 613.5,1069.17 613.667,1103.83 613.5,1138.5C 596.833,1138.5 580.167,1138.5 563.5,1138.5C 563.5,1135.5 563.5,1132.5 563.5,1129.5C 563.665,1125.82 563.499,1122.15 563,1118.5C 560.67,1122.32 558.17,1125.99 555.5,1129.5C 541.47,1139.54 525.803,1143.04 508.5,1140C 498.645,1138.08 490.312,1133.58 483.5,1126.5C 475.658,1115.48 472.824,1103.14 475,1089.5C 478.513,1073.65 488.013,1063.15 503.5,1058C 518.329,1054.68 533.329,1052.35 548.5,1051C 552.049,1050.23 555.382,1048.89 558.5,1047C 562.059,1043.13 562.392,1038.96 559.5,1034.5C 556.025,1031.43 552.025,1029.43 547.5,1028.5C 539.537,1027.76 533.037,1030.43 528,1036.5C 526.991,1038.02 526.491,1039.69 526.5,1041.5C 510.52,1040.31 494.52,1039.31 478.5,1038.5C 479.01,1035.46 479.677,1032.46 480.5,1029.5C 487.166,1013.34 498.833,1002.5 515.5,997C 540.041,989.9 564.041,991.4 587.5,1001.5 Z M 533.5,1033.5 C 533.279,1034.73 532.612,1035.73 531.5,1036.5C 531.808,1037.31 532.308,1037.97 533,1038.5C 535.179,1037.88 537.012,1036.72 538.5,1035C 537.551,1034.38 536.718,1034.55 536,1035.5C 535.292,1034.62 534.458,1033.95 533.5,1033.5 Z M 532.5,1089.5 C 532.423,1090.75 531.756,1091.58 530.5,1092C 532.788,1092.42 534.788,1091.75 536.5,1090C 535.207,1089.51 533.873,1089.34 532.5,1089.5 Z"/></g>
<g><path style="opacity:1" fill="#020101" d="M 745.5,1000.5 C 765.426,1010.66 776.093,1027 777.5,1049.5C 761.466,1050.9 745.466,1052.57 729.5,1054.5C 729.68,1050.71 728.68,1047.38 726.5,1044.5C 724.641,1037.31 719.974,1033.31 712.5,1032.5C 700.561,1031.72 692.727,1037.06 689,1048.5C 684.931,1063.63 686.097,1078.3 692.5,1092.5C 697.995,1100.9 705.662,1103.74 715.5,1101C 720.185,1099.65 723.685,1096.82 726,1092.5C 727.377,1088.25 728.877,1084.09 730.5,1080C 741.827,1080.6 753.16,1081.44 764.5,1082.5C 768.833,1083.17 773.167,1083.83 777.5,1084.5C 775.652,1110.68 762.318,1128.18 737.5,1137C 705.982,1146.8 677.649,1141.3 652.5,1120.5C 639.949,1105.02 633.616,1087.19 633.5,1067C 633.465,1043.41 642.132,1023.74 659.5,1008C 686.709,990.169 715.376,987.669 745.5,1000.5 Z M 698.5,1081.5 C 697.624,1081.37 696.957,1081.7 696.5,1082.5C 697.694,1083.67 698.361,1083.34 698.5,1081.5 Z"/></g>
<g><path style="opacity:1" fill="#010101" d="M 1063.5,1000.5 C 1078.54,1007.89 1087.54,1019.89 1090.5,1036.5C 1075.1,1037.81 1059.77,1039.31 1044.5,1041C 1043.1,1036.67 1040.43,1033.5 1036.5,1031.5C 1034.57,1029.71 1032.24,1028.71 1029.5,1028.5C 1022.58,1026.6 1016.08,1027.6 1010,1031.5C 1008.87,1033.35 1008.37,1035.35 1008.5,1037.5C 1009.55,1041.72 1012.22,1044.55 1016.5,1046C 1035.05,1048.98 1053.39,1052.81 1071.5,1057.5C 1094.49,1069.4 1100.66,1087.4 1090,1111.5C 1078.76,1127.72 1063.26,1137.22 1043.5,1140C 1023.23,1143.56 1003.56,1141.56 984.5,1134C 977.286,1130.23 970.62,1125.73 964.5,1120.5C 958.641,1113.11 954.641,1104.78 952.5,1095.5C 966.286,1093.5 979.953,1091.5 993.5,1089.5C 996.187,1089.34 998.854,1089.5 1001.5,1090C 1002.23,1092.06 1003.23,1093.89 1004.5,1095.5C 1006.74,1100.24 1010.41,1103.4 1015.5,1105C 1021.1,1106.46 1026.76,1106.79 1032.5,1106C 1040.17,1105.01 1043,1100.84 1041,1093.5C 1037.44,1090.26 1033.27,1088.26 1028.5,1087.5C 1015.07,1085.3 1001.74,1082.63 988.5,1079.5C 987.833,1079.5 987.167,1079.5 986.5,1079.5C 977.708,1076.27 970.042,1071.27 963.5,1064.5C 960.529,1059.55 958.362,1054.22 957,1048.5C 953.667,1029.67 959.834,1014.84 975.5,1004C 1004.29,989.98 1033.62,988.813 1063.5,1000.5 Z M 1017.5,1032.5 C 1019.14,1032.48 1020.48,1033.15 1021.5,1034.5C 1022.17,1033.83 1022.83,1033.17 1023.5,1032.5C 1026.91,1034.48 1030.58,1034.98 1034.5,1034C 1028.93,1031.45 1023.26,1030.95 1017.5,1032.5 Z M 1036.5,1036.5 C 1036.84,1038.23 1037.84,1038.73 1039.5,1038C 1038.47,1037.49 1037.47,1036.99 1036.5,1036.5 Z"/></g>
<g><path style="opacity:1" fill="#f9faf9" d="M 474.5,997.5 C 472.663,997.361 472.33,996.694 473.5,995.5C 474.298,995.957 474.631,996.624 474.5,997.5 Z"/></g>
<g><path style="opacity:1" fill="#f9faf9" d="M 599.5,1001.5 C 599.639,999.663 600.306,999.33 601.5,1000.5C 601.043,1001.3 600.376,1001.63 599.5,1001.5 Z"/></g>
<g><path style="opacity:1" fill="#f9faf9" d="M 761.5,1001.5 C 759.663,1001.36 759.33,1000.69 760.5,999.5C 761.298,999.957 761.631,1000.62 761.5,1001.5 Z"/></g>
<g><path style="opacity:1" fill="#f9faf9" d="M 1075.5,999.5 C 1077.34,999.639 1077.67,1000.31 1076.5,1001.5C 1075.7,1001.04 1075.37,1000.38 1075.5,999.5 Z"/></g>
<g><path style="opacity:1" fill="#f9faf9" d="M 761.5,1001.5 C 762.833,1001.5 763.5,1002.17 763.5,1003.5C 762.833,1003.5 762.167,1003.5 761.5,1003.5C 761.5,1002.83 761.5,1002.17 761.5,1001.5 Z"/></g>
<g><path style="opacity:1" fill="#f9faf9" d="M 778.5,1001.5 C 779.693,1001.97 780.36,1002.97 780.5,1004.5C 780.167,1005.5 779.833,1006.5 779.5,1007.5C 778.534,1005.6 778.201,1003.6 778.5,1001.5 Z"/></g>
<g><path style="opacity:1" fill="#f9faf9" d="M 763.5,1003.5 C 766.167,1004.17 766.167,1004.83 763.5,1005.5C 763.5,1004.83 763.5,1004.17 763.5,1003.5 Z"/></g>
<g><path style="opacity:1" fill="#f9faf9" d="M 1159.5,1005.5 C 1157.66,1005.36 1157.33,1004.69 1158.5,1003.5C 1159.3,1003.96 1159.63,1004.62 1159.5,1005.5 Z"/></g>
<g><path style="opacity:1" fill="#f9faf9" d="M 606.5,1007.5 C 605.833,1007.5 605.167,1007.5 604.5,1007.5C 605.167,1004.83 605.833,1004.83 606.5,1007.5 Z"/></g>
<g><path style="opacity:1" fill="#f9faf9" d="M 606.5,1007.5 C 609.167,1008.17 609.167,1008.83 606.5,1009.5C 606.5,1008.83 606.5,1008.17 606.5,1007.5 Z"/></g>
<g><path style="opacity:1" fill="#f9faf9" d="M 769.5,1009.5 C 767.663,1009.36 767.33,1008.69 768.5,1007.5C 769.298,1007.96 769.631,1008.62 769.5,1009.5 Z"/></g>
<g><path style="opacity:1" fill="#f9faf9" d="M 769.5,1009.5 C 770.833,1010.17 770.833,1010.83 769.5,1011.5C 769.5,1010.83 769.5,1010.17 769.5,1009.5 Z"/></g>
<g><path style="opacity:1" fill="#f9faf9" d="M 778.5,1009.5 C 780.337,1009.64 780.67,1010.31 779.5,1011.5C 778.702,1011.04 778.369,1010.38 778.5,1009.5 Z"/></g>
<g><path style="opacity:1" fill="#f9faf9" d="M 778.5,1013.5 C 780.337,1013.64 780.67,1014.31 779.5,1015.5C 778.702,1015.04 778.369,1014.38 778.5,1013.5 Z"/></g>
<g><path style="opacity:1" fill="#f9faf9" d="M 778.5,1017.5 C 780.337,1017.64 780.67,1018.31 779.5,1019.5C 778.702,1019.04 778.369,1018.38 778.5,1017.5 Z"/></g>
<g><path style="opacity:1" fill="#a48b01" d="M 850.5,1016.5 C 850.833,1016.5 851.167,1016.5 851.5,1016.5C 851.174,1025.35 851.507,1034.02 852.5,1042.5C 852.44,1043.04 852.107,1043.38 851.5,1043.5C 850.502,1034.52 850.168,1025.52 850.5,1016.5 Z"/></g>
<g><path style="opacity:1" fill="#f9faf9" d="M 938.5,1019.5 C 938.5,1021.17 938.5,1022.83 938.5,1024.5C 937.5,1024.5 936.5,1024.5 935.5,1024.5C 934.916,1021.71 935.916,1020.05 938.5,1019.5 Z"/></g>
<g><path style="opacity:1" fill="#f9faf9" d="M 778.5,1030.5 C 778.18,1027.1 778.513,1023.77 779.5,1020.5C 779.833,1022.17 780.167,1023.83 780.5,1025.5C 780.444,1027.64 779.777,1029.31 778.5,1030.5 Z"/></g>
<g><path style="opacity:1" fill="#f9faf9" d="M 931.5,1022.5 C 932.586,1022.62 933.253,1023.29 933.5,1024.5C 933.253,1025.71 932.586,1026.38 931.5,1026.5C 931.5,1025.17 931.5,1023.83 931.5,1022.5 Z"/></g>
<g><path style="opacity:1" fill="#f9faf9" d="M 1151.5,1028.5 C 1149.66,1028.36 1149.33,1027.69 1150.5,1026.5C 1151.3,1026.96 1151.63,1027.62 1151.5,1028.5 Z"/></g>
<g><path style="opacity:1" fill="#f6d10b" d="M 547.5,1028.5 C 552.025,1029.43 556.025,1031.43 559.5,1034.5C 562.392,1038.96 562.059,1043.13 558.5,1047C 555.382,1048.89 552.049,1050.23 548.5,1051C 533.329,1052.35 518.329,1054.68 503.5,1058C 488.013,1063.15 478.513,1073.65 475,1089.5C 472.824,1103.14 475.658,1115.48 483.5,1126.5C 471.049,1120.86 463.549,1111.19 461,1097.5C 458.528,1068.29 471.694,1050.79 500.5,1045C 514.345,1044.12 528.012,1042.12 541.5,1039C 545.957,1036.92 547.957,1033.42 547.5,1028.5 Z"/></g>
<g><path style="opacity:1" fill="#e5c41a" d="M 1029.5,1028.5 C 1032.24,1028.71 1034.57,1029.71 1036.5,1031.5C 1033.36,1032.02 1031.03,1031.02 1029.5,1028.5 Z"/></g>
<g><path style="opacity:1" fill="#f9faf9" d="M 1149.5,1032.5 C 1147.66,1032.36 1147.33,1031.69 1148.5,1030.5C 1149.3,1030.96 1149.63,1031.62 1149.5,1032.5 Z"/></g>
<g><path style="opacity:1" fill="#f0cc11" d="M 712.5,1032.5 C 719.974,1033.31 724.641,1037.31 726.5,1044.5C 723.102,1044.82 719.768,1044.49 716.5,1043.5C 715.555,1039.66 714.222,1036 712.5,1032.5 Z"/></g>
<g><path style="opacity:1" fill="#f9f9f9" d="M 1541.5,1182.5 C 1526.05,1180.61 1515.05,1172.61 1508.5,1158.5C 1508.44,1157.96 1508.11,1157.62 1507.5,1157.5C 1506.5,1164.13 1506.17,1170.8 1506.5,1177.5C 1506.5,1196.5 1506.5,1215.5 1506.5,1234.5C 1501.17,1234.5 1495.83,1234.5 1490.5,1234.5C 1478.5,1234.5 1466.5,1234.5 1454.5,1234.5C 1454.5,1169.17 1454.5,1103.83 1454.5,1038.5C 1471.47,1036.51 1488.8,1035.85 1506.5,1036.5C 1506.5,1038.83 1506.5,1041.17 1506.5,1043.5C 1506.33,1049.18 1506.5,1054.84 1507,1060.5C 1512.41,1049.59 1520.58,1041.59 1531.5,1036.5C 1572.78,1031.26 1596.95,1049.26 1604,1090.5C 1606.4,1111.1 1604.07,1131.1 1597,1150.5C 1585.56,1173.15 1567.06,1183.81 1541.5,1182.5 Z"/></g>
<g><path style="opacity:1" fill="#0c0a05" d="M 1531.5,1036.5 C 1520.58,1041.59 1512.41,1049.59 1507,1060.5C 1506.5,1054.84 1506.33,1049.18 1506.5,1043.5C 1513.94,1038.13 1522.27,1035.8 1531.5,1036.5 Z"/></g>
<g><path style="opacity:1" fill="#f1cd14" d="M 1008.5,1037.5 C 1027.05,1039.15 1045.05,1043.15 1062.5,1049.5C 1066.06,1051.46 1069.06,1054.13 1071.5,1057.5C 1053.39,1052.81 1035.05,1048.98 1016.5,1046C 1012.22,1044.55 1009.55,1041.72 1008.5,1037.5 Z"/></g>
<g><path style="opacity:1" fill="#010101" d="M 1454.5,1038.5 C 1454.5,1103.83 1454.5,1169.17 1454.5,1234.5C 1466.5,1234.5 1478.5,1234.5 1490.5,1234.5C 1473.53,1236.49 1456.2,1237.15 1438.5,1236.5C 1438.5,1170.5 1438.5,1104.5 1438.5,1038.5C 1443.83,1038.5 1449.17,1038.5 1454.5,1038.5 Z"/></g>
<g><path style="opacity:1" fill="#f9faf9" d="M 458.5,1044.5 C 460.337,1044.64 460.67,1045.31 459.5,1046.5C 458.702,1046.04 458.369,1045.38 458.5,1044.5 Z"/></g>
<g><path style="opacity:1" fill="#f9faf9" d="M 462.5,1044.5 C 464.447,1045.47 466.447,1046.47 468.5,1047.5C 466.604,1048.47 464.604,1048.8 462.5,1048.5C 462.5,1047.17 462.5,1045.83 462.5,1044.5 Z"/></g>
<g><path style="opacity:1" fill="#f9faf9" d="M 478.5,1048.5 C 477.833,1048.5 477.167,1048.5 476.5,1048.5C 477.167,1045.83 477.833,1045.83 478.5,1048.5 Z"/></g>
<g><path style="opacity:1" fill="#f9faf9" d="M 466.5,1052.5 C 465.833,1052.5 465.167,1052.5 464.5,1052.5C 465.167,1049.83 465.833,1049.83 466.5,1052.5 Z"/></g>
<g><path style="opacity:1" fill="#f9faf9" d="M 452.5,1054.5 C 454.337,1054.64 454.67,1055.31 453.5,1056.5C 452.702,1056.04 452.369,1055.38 452.5,1054.5 Z"/></g>
<g><path style="opacity:1" fill="#f9faf9" d="M 450.5,1058.5 C 451.649,1058.79 452.316,1059.62 452.5,1061C 452.167,1061.83 451.833,1062.67 451.5,1063.5C 450.548,1061.95 450.215,1060.29 450.5,1058.5 Z"/></g>
<g><path style="opacity:1" fill="#f9faf9" d="M 458.5,1060.5 C 457.833,1060.5 457.167,1060.5 456.5,1060.5C 457.167,1057.83 457.833,1057.83 458.5,1060.5 Z"/></g>
<g><path style="opacity:1" fill="#f9e777" d="M 836.5,934.5 C 836.833,934.5 837.167,934.5 837.5,934.5C 837.5,934.833 837.5,935.167 837.5,935.5C 820.167,935.5 802.833,935.5 785.5,935.5C 785.5,999.833 785.5,1064.17 785.5,1128.5C 789.833,1128.5 794.167,1128.5 798.5,1128.5C 798.5,1128.83 798.5,1129.17 798.5,1129.5C 793.833,1129.5 789.167,1129.5 784.5,1129.5C 784.5,1064.5 784.5,999.5 784.5,934.5C 801.833,934.5 819.167,934.5 836.5,934.5 Z"/></g>
<g><path style="opacity:1" fill="#f9faf9" d="M 456.5,1063.5 C 456.5,1064.83 455.833,1065.5 454.5,1065.5C 454.5,1064.17 455.167,1063.5 456.5,1063.5 Z"/></g>
<g><path style="opacity:1" fill="#f9faf9" d="M 911.5,1065.5 C 914.167,1066.17 914.167,1066.83 911.5,1067.5C 911.5,1066.83 911.5,1066.17 911.5,1065.5 Z"/></g>
<g><path style="opacity:1" fill="#f6d009" d="M 764.5,1082.5 C 753.16,1081.44 741.827,1080.6 730.5,1080C 728.877,1084.09 727.377,1088.25 726,1092.5C 723.685,1096.82 720.185,1099.65 715.5,1101C 705.662,1103.74 697.995,1100.9 692.5,1092.5C 706.466,1091.87 714.466,1084.54 716.5,1070.5C 717.833,1070.17 719.167,1069.83 720.5,1069.5C 735.129,1071.33 749.795,1072.66 764.5,1073.5C 764.5,1076.5 764.5,1079.5 764.5,1082.5 Z"/></g>
<g><path style="opacity:1" fill="#f9faf9" d="M 763.5,1071.5 C 763.639,1069.66 764.306,1069.33 765.5,1070.5C 765.043,1071.3 764.376,1071.63 763.5,1071.5 Z"/></g>
<g><path style="opacity:1" fill="#070604" d="M 1523.5,1141.5 C 1529.35,1136.14 1532.85,1129.47 1534,1121.5C 1535.13,1111.02 1534.47,1100.68 1532,1090.5C 1529.62,1084.39 1525.46,1080.05 1519.5,1077.5C 1529.13,1072.46 1537.63,1074.13 1545,1082.5C 1553.48,1099.77 1553.48,1117.11 1545,1134.5C 1539.24,1141.36 1532.08,1143.7 1523.5,1141.5 Z"/></g>
<g><path style="opacity:1" fill="#f5d013" d="M 368.5,1075.5 C 371.448,1075.22 374.281,1075.56 377,1076.5C 386.18,1094.19 395.346,1111.86 404.5,1129.5C 400.393,1130.15 396.893,1129.15 394,1126.5C 385.473,1109.45 376.973,1092.45 368.5,1075.5 Z"/></g>
<g><path style="opacity:1" fill="#f6d108" d="M 523.5,1097.5 C 532.355,1098.49 539.522,1095.49 545,1088.5C 546.707,1086.09 547.54,1083.42 547.5,1080.5C 551.901,1078.66 556.567,1077.32 561.5,1076.5C 564.259,1099.91 553.925,1110.07 530.5,1107C 526.414,1105.09 524.081,1101.92 523.5,1097.5 Z"/></g>
<g><path style="opacity:1" fill="#f9faf9" d="M 698.5,1079.5 C 698.639,1077.66 699.306,1077.33 700.5,1078.5C 700.043,1079.3 699.376,1079.63 698.5,1079.5 Z"/></g>
<g><path style="opacity:1" fill="#f9faf9" d="M 704.5,1077.5 C 706.337,1077.64 706.67,1078.31 705.5,1079.5C 704.702,1079.04 704.369,1078.38 704.5,1077.5 Z"/></g>
<g><path style="opacity:1" fill="#f9faf9" d="M 778.5,1077.5 C 780.337,1077.64 780.67,1078.31 779.5,1079.5C 778.702,1079.04 778.369,1078.38 778.5,1077.5 Z"/></g>
<g><path style="opacity:1" fill="#f9faf9" d="M 923.5,1077.5 C 925.337,1077.64 925.67,1078.31 924.5,1079.5C 923.702,1079.04 923.369,1078.38 923.5,1077.5 Z"/></g>
<g><path style="opacity:1" fill="#f8d205" d="M 1519.5,1077.5 C 1525.46,1080.05 1529.62,1084.39 1532,1090.5C 1534.47,1100.68 1535.13,1111.02 1534,1121.5C 1532.85,1129.47 1529.35,1136.14 1523.5,1141.5C 1515.85,1138.68 1510.68,1133.34 1508,1125.5C 1504.67,1113.83 1504.67,1102.16 1508,1090.5C 1510.32,1084.69 1514.16,1080.35 1519.5,1077.5 Z"/></g>
<g><path style="opacity:1" fill="#f9faf9" d="M 446.5,1079.5 C 448.337,1079.64 448.67,1080.31 447.5,1081.5C 446.702,1081.04 446.369,1080.38 446.5,1079.5 Z"/></g>
<g><path style="opacity:1" fill="#f5f5f5" d="M 547.5,1080.5 C 547.54,1083.42 546.707,1086.09 545,1088.5C 539.522,1095.49 532.355,1098.49 523.5,1097.5C 523.928,1089.23 528.261,1084.06 536.5,1082C 540.145,1081.28 543.812,1080.78 547.5,1080.5 Z M 532.5,1089.5 C 532.423,1090.75 531.756,1091.58 530.5,1092C 532.788,1092.42 534.788,1091.75 536.5,1090C 535.207,1089.51 533.873,1089.34 532.5,1089.5 Z"/></g>
<g><path style="opacity:1" fill="#f6d113" d="M 986.5,1079.5 C 987.167,1079.5 987.833,1079.5 988.5,1079.5C 989.115,1083.4 990.781,1086.73 993.5,1089.5C 979.953,1091.5 966.286,1093.5 952.5,1095.5C 954.641,1104.78 958.641,1113.11 964.5,1120.5C 949.939,1112.92 941.606,1100.92 939.5,1084.5C 955.158,1082.76 970.825,1081.09 986.5,1079.5 Z"/></g>
<g><path style="opacity:1" fill="#f4f4f2" d="M 988.5,1079.5 C 1001.74,1082.63 1015.07,1085.3 1028.5,1087.5C 1027.82,1091.02 1025.82,1093.52 1022.5,1095C 1016.51,1096.65 1010.51,1096.82 1004.5,1095.5C 1003.23,1093.89 1002.23,1092.06 1001.5,1090C 998.854,1089.5 996.187,1089.34 993.5,1089.5C 990.781,1086.73 989.115,1083.4 988.5,1079.5 Z M 1011.5,1089.5 C 1012.75,1089.58 1013.58,1090.24 1014,1091.5C 1014.48,1090.55 1014.65,1089.55 1014.5,1088.5C 1013.21,1088.26 1012.21,1088.6 1011.5,1089.5 Z"/></g>
<g><path style="opacity:1" fill="#f9faf9" d="M 360.5,1081.5 C 363.167,1082.17 363.167,1082.83 360.5,1083.5C 360.5,1082.83 360.5,1082.17 360.5,1081.5 Z"/></g>
<g><path style="opacity:1" fill="#f9faf9" d="M 454.5,1081.5 C 456.337,1081.64 456.67,1082.31 455.5,1083.5C 454.702,1083.04 454.369,1082.38 454.5,1081.5 Z"/></g>
<g><path style="opacity:1" fill="#f9faf9" d="M 931.5,1085.5 C 932.586,1085.62 933.253,1086.29 933.5,1087.5C 933.167,1088.17 932.833,1088.83 932.5,1089.5C 931.571,1088.31 931.238,1086.98 931.5,1085.5 Z"/></g>
<g><path style="opacity:1" fill="#f2cd04" d="M 1028.5,1087.5 C 1033.27,1088.26 1037.44,1090.26 1041,1093.5C 1043,1100.84 1040.17,1105.01 1032.5,1106C 1026.76,1106.79 1021.1,1106.46 1015.5,1105C 1010.41,1103.4 1006.74,1100.24 1004.5,1095.5C 1010.51,1096.82 1016.51,1096.65 1022.5,1095C 1025.82,1093.52 1027.82,1091.02 1028.5,1087.5 Z"/></g>
<g><path style="opacity:1" fill="#f3cf16" d="M 882.5,1129.5 C 879.552,1129.78 876.719,1129.44 874,1128.5C 867.741,1116.98 861.241,1105.64 854.5,1094.5C 855.389,1092.26 856.722,1090.26 858.5,1088.5C 866.775,1102.06 874.775,1115.72 882.5,1129.5 Z"/></g>
<g><path style="opacity:1" fill="#f9faf9" d="M 362.5,1091.5 C 363.693,1091.97 364.36,1092.97 364.5,1094.5C 364.167,1095.5 363.833,1096.5 363.5,1097.5C 362.534,1095.6 362.201,1093.6 362.5,1091.5 Z"/></g>
<g><path style="opacity:1" fill="#f9faf9" d="M 448.5,1091.5 C 450.337,1091.64 450.67,1092.31 449.5,1093.5C 448.702,1093.04 448.369,1092.38 448.5,1091.5 Z"/></g>
<g><path style="opacity:1" fill="#f9faf9" d="M 370.5,1097.5 C 368.663,1097.36 368.33,1096.69 369.5,1095.5C 370.298,1095.96 370.631,1096.62 370.5,1097.5 Z"/></g>
<g><path style="opacity:1" fill="#f9faf9" d="M 366.5,1104.5 C 364.92,1106.72 363.92,1109.38 363.5,1112.5C 362.508,1108.22 362.174,1103.88 362.5,1099.5C 366.257,1099.29 366.924,1100.29 364.5,1102.5C 365.243,1103.18 365.909,1103.85 366.5,1104.5 Z"/></g>
<g><path style="opacity:1" fill="#f9faf9" d="M 370.5,1099.5 C 370.5,1100.17 370.5,1100.83 370.5,1101.5C 367.833,1100.83 367.833,1100.17 370.5,1099.5 Z"/></g>
<g><path style="opacity:1" fill="#f9faf9" d="M 1122.5,1101.5 C 1124.34,1101.64 1124.67,1102.31 1123.5,1103.5C 1122.7,1103.04 1122.37,1102.38 1122.5,1101.5 Z"/></g>
<g><path style="opacity:1" fill="#f9faf9" d="M 370.5,1103.5 C 370.823,1107.23 370.489,1110.89 369.5,1114.5C 368.5,1113.5 367.5,1112.5 366.5,1111.5C 367.415,1110.67 368.081,1109.67 368.5,1108.5C 367.775,1107.13 367.108,1105.8 366.5,1104.5C 367.833,1104.17 369.167,1103.83 370.5,1103.5 Z"/></g>
<g><path style="opacity:1" fill="#f9faf9" d="M 1097.5,1104.5 C 1097.9,1103.47 1098.56,1103.31 1099.5,1104C 1098.91,1104.46 1098.24,1104.63 1097.5,1104.5 Z"/></g>
<g><path style="opacity:1" fill="#f9faf9" d="M 856.5,1108.5 C 857.167,1108.5 857.833,1108.5 858.5,1108.5C 857.833,1111.17 857.167,1111.17 856.5,1108.5 Z"/></g>
<g><path style="opacity:1" fill="#f9faf9" d="M 778.5,1110.5 C 780.337,1110.64 780.67,1111.31 779.5,1112.5C 778.702,1112.04 778.369,1111.38 778.5,1110.5 Z"/></g>
<g><path style="opacity:1" fill="#f9faf9" d="M 1118.5,1110.5 C 1120.34,1110.64 1120.67,1111.31 1119.5,1112.5C 1118.7,1112.04 1118.37,1111.38 1118.5,1110.5 Z"/></g>
<g><path style="opacity:1" fill="#f9faf9" d="M 776.5,1114.5 C 777.833,1114.5 779.167,1114.5 780.5,1114.5C 780.762,1115.98 780.429,1117.31 779.5,1118.5C 778.066,1117.41 777.066,1116.08 776.5,1114.5 Z"/></g>
<g><path style="opacity:1" fill="#efcc24" d="M 563.5,1129.5 C 560.833,1129.5 558.167,1129.5 555.5,1129.5C 558.17,1125.99 560.67,1122.32 563,1118.5C 563.499,1122.15 563.665,1125.82 563.5,1129.5 Z"/></g>
<g><path style="opacity:1" fill="#f9faf9" d="M 1118.5,1124.5 C 1118.38,1125.59 1117.71,1126.25 1116.5,1126.5C 1115.83,1126.17 1115.17,1125.83 1114.5,1125.5C 1115.69,1124.57 1117.02,1124.24 1118.5,1124.5 Z"/></g>
<g><path style="opacity:1" fill="#65635f" d="M 1344.5,1135.5 C 1346.61,1136.47 1348.94,1136.8 1351.5,1136.5C 1348.17,1137.83 1344.83,1137.83 1341.5,1136.5C 1342.61,1136.44 1343.61,1136.11 1344.5,1135.5 Z"/></g>
<g><path style="opacity:1" fill="#bbbbbb" d="M 465.5,1137.5 C 466.043,1137.56 466.376,1137.89 466.5,1138.5C 447.338,1139.83 428.338,1139.83 409.5,1138.5C 428.341,1138.83 447.007,1138.5 465.5,1137.5 Z"/></g>
<g><path style="opacity:1" fill="#f9faf9" d="M 808.5,1142.5 C 810.337,1142.64 810.67,1143.31 809.5,1144.5C 808.702,1144.04 808.369,1143.38 808.5,1142.5 Z"/></g>
<g><path style="opacity:1" fill="#f9faf9" d="M 894.5,1142.5 C 895.525,1142.9 895.692,1143.56 895,1144.5C 894.536,1143.91 894.369,1143.24 894.5,1142.5 Z"/></g>
<g><path style="opacity:1" fill="#f9faf9" d="M 694.5,1145.5 C 695.601,1144.4 696.934,1144.24 698.5,1145C 697.207,1145.49 695.873,1145.66 694.5,1145.5 Z"/></g>
<g><path style="opacity:1" fill="#f9faf9" d="M 1011.5,1144.5 C 1011.1,1145.53 1010.44,1145.69 1009.5,1145C 1010.09,1144.54 1010.76,1144.37 1011.5,1144.5 Z"/></g>
<g><path style="opacity:1" fill="#f9faf9" d="M 1110.5,1147.5 C 1110.38,1148.59 1109.71,1149.25 1108.5,1149.5C 1107.83,1149.17 1107.17,1148.83 1106.5,1148.5C 1107.69,1147.57 1109.02,1147.24 1110.5,1147.5 Z"/></g>
<g><path style="opacity:1" fill="#747474" d="M 1508.5,1158.5 C 1507.51,1164.64 1507.18,1170.98 1507.5,1177.5C 1507.17,1177.5 1506.83,1177.5 1506.5,1177.5C 1506.17,1170.8 1506.5,1164.13 1507.5,1157.5C 1508.11,1157.62 1508.44,1157.96 1508.5,1158.5 Z"/></g>
<g><path style="opacity:1" fill="#080706" d="M 1508.5,1158.5 C 1515.05,1172.61 1526.05,1180.61 1541.5,1182.5C 1534.01,1183.66 1526.34,1183.82 1518.5,1183C 1514.49,1181.66 1510.83,1179.83 1507.5,1177.5C 1507.18,1170.98 1507.51,1164.64 1508.5,1158.5 Z"/></g>
<g><path style="opacity:1" fill="#f9faf9" d="M 1104.5,1169.5 C 1103.47,1169.1 1103.31,1168.44 1104,1167.5C 1104.46,1168.09 1104.63,1168.76 1104.5,1169.5 Z"/></g>
<g><path style="opacity:1" fill="#dddddd" d="M 1781.5,917.5 C 1781.5,919.167 1781.5,920.833 1781.5,922.5C 1780.78,927.48 1779.44,932.313 1777.5,937C 1777.74,937.873 1778.07,938.707 1778.5,939.5C 1777.73,940.711 1776.89,940.711 1776,939.5C 1771.82,953.903 1767.32,968.236 1762.5,982.5C 1763.68,984.198 1763.68,985.865 1762.5,987.5C 1761.91,987.291 1761.41,986.957 1761,986.5C 1756.93,1001.12 1752.1,1015.45 1746.5,1029.5C 1747.68,1031.2 1747.68,1032.86 1746.5,1034.5C 1745.91,1034.29 1745.41,1033.96 1745,1033.5C 1740.77,1047.98 1735.93,1062.32 1730.5,1076.5C 1731.68,1078.2 1731.68,1079.86 1730.5,1081.5C 1729.91,1081.29 1729.41,1080.96 1729,1080.5C 1725.16,1094.99 1720.66,1109.15 1715.5,1123C 1716.61,1124.88 1716.61,1126.72 1715.5,1128.5C 1714.91,1128.29 1714.41,1127.96 1714,1127.5C 1704.54,1156.07 1695.2,1183.73 1686,1210.5C 1685.03,1213.89 1684.87,1217.23 1685.5,1220.5C 1685.18,1222.57 1684.34,1222.9 1683,1221.5C 1678.61,1236.1 1673.78,1250.43 1668.5,1264.5C 1669.68,1266.2 1669.68,1267.86 1668.5,1269.5C 1667.81,1268.97 1667.31,1268.31 1667,1267.5C 1664.27,1275.94 1662.1,1284.28 1660.5,1292.5C 1659.91,1292.29 1659.41,1291.96 1659,1291.5C 1657.45,1298.29 1655.29,1304.79 1652.5,1311C 1653.75,1312.49 1653.75,1313.99 1652.5,1315.5C 1651.91,1315.29 1651.41,1314.96 1651,1314.5C 1650.33,1319.03 1648.83,1323.03 1646.5,1326.5C 1645.86,1328.08 1644.86,1329.41 1643.5,1330.5C 1689.13,1192.61 1735.13,1054.94 1781.5,917.5 Z"/></g>
<g><path style="opacity:1" fill="#5c5437" d="M 1147.5,1259.5 C 1147.83,1259.5 1148.17,1259.5 1148.5,1259.5C 1143.02,1275.95 1137.35,1292.28 1131.5,1308.5C 1135.55,1292.01 1140.88,1275.68 1147.5,1259.5 Z"/></g>
<g><path style="opacity:1" fill="#f6f6f6" d="M 1646.5,1326.5 C 1646.66,1328.86 1646.5,1331.19 1646,1333.5C 1642.8,1344.24 1639.3,1354.91 1635.5,1365.5C 1484.16,1366.17 1333.16,1365.5 1182.5,1363.5C 1332.5,1363.83 1482.5,1363.5 1632.5,1362.5C 1636.18,1351.81 1639.84,1341.14 1643.5,1330.5C 1644.86,1329.41 1645.86,1328.08 1646.5,1326.5 Z"/></g>
<g><path style="opacity:1" fill="#e6e6e6" d="M 1186.5,1350.5 C 1186.41,1352.79 1185.74,1354.79 1184.5,1356.5C 1184.03,1353.92 1184.69,1351.92 1186.5,1350.5 Z"/></g>
<g><path style="opacity:1" fill="#e7e7e7" d="M 1184.5,1356.5 C 1184.41,1358.79 1183.74,1360.79 1182.5,1362.5C 1181.96,1362.44 1181.62,1362.11 1181.5,1361.5C 1181.78,1359.24 1182.78,1357.57 1184.5,1356.5 Z"/></g>
<g><path style="opacity:1" fill="#f9faf9" d="M 1999.5,1995.5 C 1999.5,1996.5 1999.5,1997.5 1999.5,1998.5C 1998.83,1998.17 1998.17,1997.83 1997.5,1997.5C 1997.5,1996.17 1998.17,1995.5 1999.5,1995.5 Z"/></g>
<g><path style="opacity:1" fill="#f9faf9" d="M 1991.5,1999.5 C 1990.83,1999.5 1990.17,1999.5 1989.5,1999.5C 1990.17,1996.83 1990.83,1996.83 1991.5,1999.5 Z"/></g>
<g><path style="opacity:1" fill="#f9faf9" d="M 1997.5,1997.5 C 1997.5,1998.17 1997.5,1998.83 1997.5,1999.5C 1996.83,1999.5 1996.17,1999.5 1995.5,1999.5C 1995.5,1998.17 1996.17,1997.5 1997.5,1997.5 Z"/></g>
</svg>
